<?xml version="1.0" encoding="UTF-8"?>
<!DOCTYPE svg PUBLIC "-//W3C//DTD SVG 1.1//EN" "http://www.w3.org/Graphics/SVG/1.1/DTD/svg11.dtd">
<!-- Creator: CorelDRAW X5 -->
<svg xmlns="http://www.w3.org/2000/svg" xml:space="preserve" width="8.9208in" height="1.7212in" style="shape-rendering:geometricPrecision; text-rendering:geometricPrecision; image-rendering:optimizeQuality; fill-rule:evenodd; clip-rule:evenodd"
viewBox="0 0 1162 224"
 xmlns:xlink="http://www.w3.org/1999/xlink">
 <defs>
  <style type="text/css">
   <![CDATA[
    .str0 {stroke:#9F3211;stroke-width:1.80909}
    .fil7 {fill:none}
    .fil6 {fill:#00A859}
    .fil1 {fill:dodgerblue}
    .fil4 {fill:limegreen}
    .fil5 {fill:red}
    .fil3 {fill:deeppink}
    .fil2 {fill:#FF6600}
    .fil0 {fill:yellow}
   ]]>
  </style>
 </defs>
 <g id="Layer_x0020_1">
  <metadata id="CorelCorpID_0Corel-Layer"/>
  <g id="_1257679328">
   <path class="fil0" d="M598 175c-9,0 -18,0 -27,0l13 50 13 -50z"/>
   <path class="fil1" d="M561 174c-9,0 -18,0 -27,-1l12 50 15 -49z"/>
   <path class="fil0" d="M524 173c-9,0 -18,-1 -27,-2l10 50 17 -49z"/>
   <path class="fil2" d="M487 170c-9,-1 -18,-2 -27,-3l8 51 18 -48z"/>
   <path class="fil3" d="M450 166c-9,-1 -18,-2 -27,-4l6 51 20 -47z"/>
   <path class="fil0" d="M413 161c-9,-1 -18,-3 -26,-5l5 51 22 -47z"/>
   <path class="fil4" d="M376 154c-9,-2 -18,-3 -26,-6l3 51 23 -46z"/>
   <path class="fil0" d="M340 146c-9,-2 -18,-4 -26,-6l1 51 25 -45z"/>
   <path class="fil2" d="M304 137c-9,-2 -17,-5 -26,-7l-1 51 26 -44z"/>
   <path class="fil5" d="M268 127c-9,-2 -17,-5 -25,-8l-3 51 28 -43z"/>
   <path class="fil0" d="M233 115c-9,-3 -17,-6 -25,-9l-4 51 29 -42z"/>
   <path class="fil1" d="M198 102c-9,-3 -17,-6 -25,-10l-6 51 31 -41z"/>
   <path class="fil0" d="M163 88c-8,-3 -17,-7 -24,-11l-8 51 32 -40z"/>
   <path class="fil2" d="M129 73c-8,-4 -16,-8 -24,-12l-10 50 34 -39z"/>
   <path class="fil5" d="M96 57c-8,-4 -16,-8 -24,-13l-11 50 35 -38z"/>
   <path class="fil0" d="M63 39c-8,-4 -16,-9 -23,-13l-13 50 36 -36z"/>
   <path class="fil5" d="M635 173c-9,1 -18,1 -27,1l15 49 12 -50z"/>
   <path class="fil2" d="M673 171c-9,1 -18,2 -27,2l17 49 10 -50z"/>
   <path class="fil0" d="M710 167c-9,1 -18,2 -27,3l19 48 8 -51z"/>
   <path class="fil6" d="M747 162c-9,2 -18,3 -27,4l20 47 6 -51z"/>
   <path class="fil0" d="M783 156c-9,2 -18,3 -26,5l22 46 5 -51z"/>
   <path class="fil5" d="M820 148c-9,2 -18,4 -26,6l23 46 3 -51z"/>
   <path class="fil2" d="M856 139c-9,3 -17,5 -26,7l25 45 1 -51z"/>
   <path class="fil0" d="M892 129c-9,3 -17,5 -26,7l27 44 -1 -51z"/>
   <path class="fil1" d="M927 118c-9,3 -17,6 -25,8l28 43 -3 -51z"/>
   <path class="fil0" d="M962 105c-8,3 -17,6 -25,9l30 42 -4 -51z"/>
   <path class="fil5" d="M997 91c-8,4 -17,7 -25,10l31 41 -6 -51z"/>
   <path class="fil2" d="M1031 76c-8,4 -16,8 -24,11l32 40 -8 -51z"/>
   <path class="fil0" d="M1064 60c-8,4 -16,8 -24,12l34 39 -10 -50z"/>
   <path class="fil4" d="M1097 43c-8,5 -16,9 -24,13l35 37 -12 -50z"/>
   <path class="fil0" d="M1130 24c-8,5 -15,9 -23,13l36 36 -13 -50z"/>
  </g>
  <path class="fil7 str0" d="M0 1c347,229 809,233 1161,4"/>
 </g>
</svg>
