<?xml version="1.0" encoding="UTF-8"?>
<!DOCTYPE svg PUBLIC "-//W3C//DTD SVG 1.1//EN" "http://www.w3.org/Graphics/SVG/1.1/DTD/svg11.dtd">
<!-- Creator: CorelDRAW X5 -->
<svg xmlns="http://www.w3.org/2000/svg" xml:space="preserve" width="1884px" height="379px" style="shape-rendering:geometricPrecision; text-rendering:geometricPrecision; image-rendering:optimizeQuality; fill-rule:evenodd; clip-rule:evenodd"
viewBox="0 0 1837 370"
 xmlns:xlink="http://www.w3.org/1999/xlink">
 <defs>
  <style type="text/css">
   <![CDATA[
    .str0 {stroke:#9F3211;stroke-width:12.1894;stroke-linecap:round;stroke-linejoin:round}
    .fil19 {fill:none;fill-rule:nonzero}
    .fil0 {fill:#9F3211}
    .fil16 {fill:#231F1F;fill-rule:nonzero}
    .fil13 {fill:#3B0569;fill-rule:nonzero}
    .fil5 {fill:#42210A;fill-rule:nonzero}
    .fil14 {fill:#491A72;fill-rule:nonzero}
    .fil18 {fill:#4B230E;fill-rule:nonzero}
    .fil4 {fill:#603813;fill-rule:nonzero}
    .fil15 {fill:#662D90;fill-rule:nonzero}
    .fil7 {fill:#754B23;fill-rule:nonzero}
    .fil6 {fill:#8C6238;fill-rule:nonzero}
    .fil10 {fill:#C64F03;fill-rule:nonzero}
    .fil12 {fill:#CACFFB;fill-rule:nonzero}
    .fil8 {fill:#D85B42;fill-rule:nonzero}
    .fil2 {fill:#E87431;fill-rule:nonzero}
    .fil11 {fill:#E9EBFD;fill-rule:nonzero}
    .fil3 {fill:#F28E1F;fill-rule:nonzero}
    .fil9 {fill:#F9CD66;fill-rule:nonzero}
    .fil1 {fill:#FBA526;fill-rule:nonzero}
    .fil17 {fill:white;fill-rule:nonzero}
   ]]>
  </style>
 </defs>
 <g id="Layer_x0020_1">
  <metadata id="CorelCorpID_0Corel-Layer"/>
  <g id="_1266752304">
   <path class="fil0" d="M611 239c1,0 1,-1 2,-1 3,-7 13,-11 20,-10 5,1 6,8 1,9 -1,0 -5,1 -8,3 1,1 2,2 3,3 1,3 1,6 -1,8 0,0 -1,1 -1,1 4,3 8,7 10,11l0 0 0 0c0,0 0,1 0,1 1,1 1,2 1,3 6,6 9,13 11,22 3,15 2,26 -7,40 -12,19 -38,31 -60,25l-2 -1c-3,-1 -5,-2 -8,-2 -1,0 -3,-1 -4,-1 -1,0 -2,0 -3,-1 -1,0 -2,-1 -4,-1l0 0c-1,0 -2,0 -3,-1l0 0c0,0 -1,0 -1,0 0,0 -1,0 -1,0l0 0c-8,-2 -14,-6 -20,-12 0,0 -1,-1 -1,-1 -10,-11 -15,-26 -15,-40 0,-16 5,-26 15,-37 7,-8 15,-12 25,-13 5,-6 15,-7 23,-5 1,0 1,0 2,0l1 0c3,-1 6,-1 9,-1 0,0 0,-1 0,-1 1,-4 -3,-7 -1,-13 1,-5 6,-5 10,-3 3,1 6,5 6,8 1,5 2,7 2,11z"/>
   <g>
    <g>
     <g>
      <path class="fil1" d="M621 258c3,5 -4,17 -4,17 -7,12 -32,9 -41,-10 -13,-27 29,-31 45,-7z"/>
      <path class="fil2" d="M586 243c4,2 8,5 12,13 5,-3 11,-6 16,-6 3,2 5,5 7,8 3,5 -4,17 -4,17 -5,9 -20,9 -30,2 -14,-9 -20,-30 -1,-34z"/>
      <path class="fil3" d="M561 250c3,-8 15,-9 22,-6 6,2 10,8 14,14 6,-4 14,-7 21,-4 6,2 11,9 13,13 4,7 2,21 -5,27 -9,7 -20,4 -27,-4 -2,0 -4,-1 -6,-2 -2,0 -4,0 -6,0 -19,-3 -30,-25 -25,-36z"/>
      <path class="fil2" d="M594 266c12,-9 25,-9 34,-2 1,0 2,1 3,1 5,8 2,22 -5,27 -9,7 -20,4 -27,-4 -2,0 -4,-1 -6,-2 -2,0 -4,0 -6,0 -23,-4 -33,-32 -22,-40 0,0 0,0 0,0 12,-1 24,6 29,20z"/>
     </g>
     <g>
      <path class="fil4" d="M604 229c0,-1 -7,-5 -7,-4 -2,5 2,8 1,14 -1,6 -6,4 -8,9 -2,5 -1,6 0,12 0,2 2,7 4,7 2,0 8,0 9,-2 3,-5 -2,-7 -1,-13 1,-6 4,-4 4,-10 1,-5 -2,-7 -2,-13z"/>
      <path class="fil5" d="M589 253c0,2 0,3 1,6 0,2 2,7 4,7 2,0 8,0 9,-2 1,-2 1,-4 0,-6 -3,0 -5,1 -7,3 -2,-4 -4,-6 -6,-8z"/>
      <path class="fil6" d="M604 228c0,1 -2,1 -4,0 -2,-1 -4,-3 -3,-4 0,-1 2,-1 4,0 2,1 4,3 3,4z"/>
      <path class="fil6" d="M600 234c0,-1 -2,-1 -1,0 1,5 -1,7 -3,10 -1,2 -2,4 -2,7 0,1 1,1 1,0 0,-5 3,-7 5,-10 1,-2 1,-5 0,-7z"/>
      <g>
       <path class="fil5" d="M591 249c-1,1 -1,2 -1,3 0,0 1,0 1,0 0,-1 0,-2 1,-3 0,0 0,-1 0,-1z"/>
       <path class="fil5" d="M591 250c0,1 -1,1 -1,2 0,1 1,1 1,0 0,-1 0,-1 0,-1 0,0 0,-1 0,-1z"/>
       <path class="fil5" d="M592 254c0,0 0,-1 0,-1 0,-1 -1,-1 -1,1 0,0 1,0 1,0z"/>
       <path class="fil5" d="M594 257c0,-1 0,-1 0,-2 0,0 0,-1 -1,0 0,1 0,1 0,2 0,0 1,0 1,0z"/>
       <path class="fil5" d="M595 256c0,0 -1,-1 -1,0l0 2c0,0 1,1 1,0l0 -2z"/>
       <path class="fil5" d="M597 258c0,0 0,-1 0,-1 0,-1 -1,-1 -1,1 0,0 1,0 1,0z"/>
       <path class="fil5" d="M598 256c0,0 -1,-1 -1,0 0,1 0,1 0,2 0,0 1,1 1,0 0,-1 0,-1 0,-2z"/>
       <path class="fil5" d="M600 257c0,-1 0,-1 0,-2 0,0 -1,0 -1,0 0,1 0,1 0,2 0,0 1,0 1,0z"/>
       <path class="fil5" d="M601 254c0,0 -1,0 -1,0 0,1 0,1 0,2 0,0 0,1 1,0 0,-1 0,-1 0,-2z"/>
       <path class="fil5" d="M596 253c0,-1 0,-1 0,-2 0,0 0,-1 -1,0 0,1 0,1 0,2 0,0 1,0 1,0z"/>
       <path class="fil5" d="M597 248c0,0 0,1 -1,1 0,0 0,1 1,0 0,0 0,-1 1,-1 0,0 0,-1 -1,0z"/>
       <path class="fil5" d="M599 246c0,0 -1,1 0,1 0,0 1,-1 0,-1z"/>
       <path class="fil5" d="M600 244c0,0 -1,1 0,1 0,0 1,-1 0,-1z"/>
       <path class="fil5" d="M600 241c0,0 0,1 0,1 0,0 1,1 1,0 0,0 0,-1 0,-1 0,0 0,-1 -1,0z"/>
       <path class="fil5" d="M601 238c0,0 -1,1 0,1 0,0 1,-1 0,-1z"/>
       <path class="fil5" d="M601 234c0,0 -1,1 0,1 0,0 1,-1 0,-1z"/>
       <path class="fil5" d="M602 232c0,-1 0,-1 0,-2 0,-1 -1,-1 -1,0 0,1 0,1 0,2 0,0 1,0 1,0z"/>
       <path class="fil5" d="M603 234c0,-1 0,-2 0,-3 0,-1 -1,0 -1,0 0,1 0,2 0,3 0,1 1,0 1,0z"/>
       <path class="fil5" d="M603 236c0,0 -1,-1 -1,0 0,1 0,2 0,3 0,0 1,1 1,0 0,-1 0,-2 0,-3z"/>
       <path class="fil5" d="M602 240c0,1 0,1 -1,2 0,0 0,1 1,0 0,-1 0,-1 1,-2 0,0 0,-1 -1,0z"/>
       <path class="fil5" d="M601 245c0,0 -1,1 0,1 0,0 1,-1 0,-1z"/>
       <path class="fil5" d="M599 249c0,0 -1,1 0,1 0,0 1,-1 0,-1z"/>
       <path class="fil5" d="M597 251l0 1c0,0 0,1 1,0l0 -1c0,0 0,-1 -1,0z"/>
       <path class="fil5" d="M597 254c0,0 -1,1 0,1 0,0 1,-1 0,-1z"/>
       <path class="fil5" d="M599 251c-2,3 0,4 0,3 0,-1 0,-2 1,-2 0,0 0,-1 -1,0z"/>
       <path class="fil5" d="M601 248c0,0 -1,1 0,1 0,0 1,-1 0,-1z"/>
       <path class="fil5" d="M602 244c0,0 -1,1 0,1 0,0 1,-1 0,-1z"/>
       <path class="fil5" d="M604 240c0,1 -1,2 -1,3 0,0 0,1 1,0 0,-1 1,-2 1,-2 0,0 0,-1 -1,0z"/>
       <path class="fil5" d="M605 238c0,0 -1,-1 -1,0 0,1 0,1 0,2 0,0 1,1 1,0 0,-1 0,-1 0,-2z"/>
       <path class="fil5" d="M602 245c0,1 -1,1 -1,2 0,0 0,1 1,0 0,-1 1,-1 1,-2 0,0 0,-1 -1,0z"/>
       <path class="fil5" d="M600 250c-2,2 0,3 0,2 0,-1 0,-1 1,-2 0,0 0,-1 0,-1z"/>
       <path class="fil5" d="M601 251c0,0 0,1 -1,1 0,0 0,1 1,0 0,0 0,-1 1,-1 0,0 0,-1 -1,0z"/>
       <path class="fil5" d="M600 245c0,0 0,1 -1,1 0,0 1,1 1,0 0,0 0,-1 0,-1 0,0 0,-1 0,-1z"/>
       <path class="fil5" d="M593 246c0,1 -1,1 -1,2 0,0 0,1 0,1 0,-1 1,-1 1,-2 0,0 0,-1 0,-1z"/>
       <path class="fil5" d="M593 247c0,0 0,1 -1,1 0,0 0,1 1,0 0,0 0,0 0,-1 0,0 0,-1 0,-1z"/>
       <path class="fil5" d="M593 250c0,0 0,1 0,1 0,0 0,1 1,0 0,0 0,-1 0,-1 0,0 0,-1 -1,0z"/>
       <path class="fil5" d="M595 242c0,1 -1,1 -1,2 0,0 0,1 0,1 0,-1 1,-1 1,-2 0,0 0,-1 0,-1z"/>
       <path class="fil5" d="M594 252c0,0 0,1 0,1 0,0 0,1 1,0 0,0 0,-1 0,-1 0,0 0,-1 -1,0z"/>
       <path class="fil5" d="M594 254c0,0 0,1 1,0 0,0 0,-1 -1,0z"/>
       <path class="fil5" d="M599 237c0,0 -1,-1 -1,0 0,1 0,1 -1,2 0,0 0,1 1,0 0,-1 1,-1 1,-2z"/>
       <path class="fil5" d="M599 235c0,-1 0,-1 0,-2 0,-1 -1,-1 -1,0 0,1 0,1 0,2 0,1 1,1 1,0z"/>
       <path class="fil5" d="M598 232c0,-1 0,-1 0,-2 0,-1 -1,-1 -1,0 0,1 0,2 0,2 0,1 1,0 1,0z"/>
       <path class="fil5" d="M597 227c0,-1 -1,-1 -1,0 0,0 0,1 0,1 0,1 1,1 1,0 0,0 0,-1 0,-1z"/>
       <path class="fil5" d="M599 231c0,-1 0,-1 0,-1 0,0 -1,-1 -1,0 0,1 0,1 0,2 0,1 1,0 1,0z"/>
       <path class="fil5" d="M600 233c0,0 0,0 0,-1 0,-1 -1,0 -1,0 0,0 0,0 0,1 0,1 1,0 1,0z"/>
       <path class="fil5" d="M599 244c-1,1 -1,1 -2,2 0,0 0,1 1,0 0,-1 1,-2 1,-2 0,0 0,-1 0,-1z"/>
       <path class="fil5" d="M604 242c0,1 -1,1 -1,2 0,0 1,1 1,0 0,-1 1,-1 1,-2 0,0 0,-1 -1,0z"/>
      </g>
      <g>
       <path class="fil7" d="M598 224c-1,0 -1,1 -1,1 0,0 0,1 1,1 0,0 1,-1 1,-1 0,0 0,-1 0,-1z"/>
       <path class="fil7" d="M599 225c-1,1 -1,1 -2,2 0,0 0,1 1,1 1,-1 1,-1 2,-2 0,0 0,-1 -1,-1z"/>
       <path class="fil7" d="M600 225c-1,1 -2,2 -2,3 0,0 0,1 1,1 1,-1 1,-2 2,-3 0,0 0,-1 -1,-1z"/>
       <path class="fil7" d="M601 226c-1,1 -1,1 -2,2 0,0 0,1 1,1 1,-1 1,-1 2,-2 0,0 0,-1 0,-1z"/>
       <path class="fil7" d="M602 226c-1,1 -1,1 -2,2 0,0 0,1 1,1 1,-1 1,-1 2,-2 0,0 0,-1 -1,-1z"/>
       <path class="fil7" d="M602 227c0,0 -1,1 -1,1 0,0 0,1 1,1 0,0 1,-1 1,-1 0,0 0,-1 -1,-1z"/>
      </g>
     </g>
     <g>
      <path class="fil1" d="M539 260c9,-10 16,-12 25,-11 12,-1 24,6 29,20 12,-9 25,-9 34,-1 8,4 13,10 15,23 2,11 3,22 -6,36 -12,18 -36,31 -55,22 -6,-1 -7,-4 -9,-9 -4,3 -7,5 -13,2 -20,-2 -35,-26 -35,-48 0,-17 6,-25 14,-33z"/>
      <path class="fil2" d="M578 281c5,-10 9,-14 13,-16 4,-3 9,-4 14,-3 9,2 14,10 17,13 7,9 8,21 7,32 -1,14 -19,44 -41,41 -28,-7 -24,-10 -25,-19 0,-13 4,-32 13,-49z"/>
      <path class="fil2" d="M596 267c-6,-12 -19,-13 -31,-8 -11,3 -19,13 -24,24 -6,13 -9,25 -2,39 2,8 5,12 13,16 2,2 5,3 7,3 2,1 3,1 5,1 10,4 16,2 21,-6 14,-22 19,-60 12,-69z"/>
      <path class="fil3" d="M543 283c5,-11 13,-20 23,-24 11,-5 22,-5 28,5 3,-2 7,-2 11,-2 8,2 13,9 16,13 6,9 7,20 6,32 -2,14 -19,45 -39,42 -8,-2 -13,-4 -16,-5 -2,0 -5,-1 -8,-2 -2,0 -3,0 -4,-1 -3,0 -5,-2 -7,-3 -8,-4 -10,-8 -12,-16 -6,-14 -3,-26 3,-39z"/>
      <path class="fil2" d="M605 279c4,18 -2,39 -12,55 -12,19 -30,13 -34,-3 -2,-9 -1,-26 2,-35 9,-34 42,-42 44,-16z"/>
      <path class="fil1" d="M603 278c3,18 -3,39 -12,54 -11,19 -27,14 -30,-2 -2,-9 0,-26 2,-35 9,-34 38,-43 39,-18z"/>
      <g>
       <path class="fil8" d="M579 344c2,-2 5,-4 7,-6 4,-4 10,-11 15,-36 2,-9 3,-8 2,0 -4,37 -28,45 -25,42z"/>
       <path class="fil8" d="M560 297c1,-2 4,-12 5,-13 0,0 2,-1 1,3 -13,31 -4,46 -2,52 1,3 -13,-12 -4,-42z"/>
       <path class="fil8" d="M584 262c3,-1 8,-2 10,0 0,0 0,1 0,1 -2,0 -4,-1 -8,1 -3,1 -5,3 -8,5 -1,1 0,-5 7,-8z"/>
       <path class="fil8" d="M594 348c2,-1 5,-2 7,-3 20,-12 31,-34 23,-64 -1,-4 16,27 -9,54 -10,11 -23,14 -21,13z"/>
       <path class="fil8" d="M557 263c0,0 1,0 1,1 -1,2 -3,3 -5,5 -15,15 -17,40 -9,60 0,1 1,2 1,4 0,0 0,2 -3,-6 -3,-8 -5,-14 -5,-23 0,-24 15,-39 20,-40z"/>
       <path class="fil8" d="M605 261c0,-1 1,-1 5,-2 2,0 3,-1 6,-1 4,0 9,2 9,5 0,0 0,1 -1,1 -2,-1 -2,-3 -9,-4 -4,0 -5,0 -8,1 -1,0 -2,1 -2,0 0,0 0,0 0,0z"/>
       <path class="fil8" d="M577 247c1,-1 2,0 3,1 4,2 6,6 7,8 0,0 0,0 0,0 -2,-2 -3,-4 -8,-7 -1,0 -2,-1 -2,-2 0,0 0,-1 0,-1z"/>
      </g>
      <g>
       <path class="fil9" d="M595 271c5,-2 8,21 4,31 0,1 0,2 -1,2 0,0 0,0 0,0 1,-5 0,-24 -3,-29 0,-1 -2,-2 -2,-3 0,-1 0,-1 1,-1z"/>
       <path class="fil9" d="M624 266c11,8 19,22 16,38 0,0 0,0 0,0 0,-15 -8,-31 -21,-37 -4,-2 -5,-1 -6,-2 -1,-1 2,-5 11,1z"/>
       <path class="fil9" d="M570 296c-5,13 -4,24 -1,29 2,1 0,4 -2,3 -1,-1 -2,-4 -2,-6 -3,-14 6,-28 5,-26z"/>
       <path class="fil9" d="M595 274c2,3 4,9 3,12 0,1 -1,0 -1,0 -1,-4 0,-4 -3,-11 -1,-1 1,-2 2,-1z"/>
       <path class="fil9" d="M562 254c3,-1 8,-3 10,-2 0,0 1,1 0,1 -2,1 -3,0 -7,1 -4,1 -5,2 -6,2 0,0 -2,-1 2,-3z"/>
       <path class="fil9" d="M557 255c0,-1 1,-1 1,-2 2,-1 5,-3 7,-3 0,0 0,1 0,1 -1,1 -3,1 -4,2 -3,2 -1,1 -4,2 0,0 -1,0 0,0z"/>
      </g>
      <g>
       <path class="fil3" d="M596 291c0,1 0,1 0,2 0,0 -1,0 0,0 0,-1 0,-1 0,-2 0,0 0,0 1,0z"/>
       <path class="fil3" d="M594 287c0,1 0,1 0,2 0,0 -1,0 -1,0 0,-1 0,-1 0,-2 0,0 1,0 1,0z"/>
       <path class="fil3" d="M592 285c0,-1 1,-2 1,-3 0,0 1,0 1,0 0,1 -1,2 -1,3 0,0 -1,0 0,0z"/>
       <path class="fil3" d="M589 280c0,-1 1,-2 1,-3 0,0 1,0 0,0 0,1 -1,2 -1,3 0,0 -1,0 0,0z"/>
       <path class="fil3" d="M585 275c0,-1 1,-2 1,-3 0,0 1,0 1,0 0,1 -1,2 -1,3 0,0 -1,0 0,0z"/>
       <path class="fil3" d="M581 271c0,1 0,2 -1,3 0,0 -1,0 -1,0 0,-1 1,-2 1,-3 0,0 1,0 1,0z"/>
       <path class="fil3" d="M592 270l0 1c0,0 -1,0 -1,0l0 -1c0,0 1,0 1,0z"/>
       <path class="fil3" d="M587 268c0,0 0,0 1,0 0,1 0,1 0,2 0,0 -1,0 0,0 0,0 0,-1 0,-1z"/>
       <path class="fil3" d="M584 269c0,-1 1,-1 1,-2 0,0 1,0 0,0 0,1 -1,1 -1,2 0,0 -1,0 0,0z"/>
       <path class="fil3" d="M592 266l0 -1c0,0 1,0 0,0 0,0 0,0 0,1 0,0 -1,0 0,0z"/>
       <path class="fil3" d="M589 283c0,1 0,2 -1,2 0,0 -1,0 -1,0 0,-1 0,-2 1,-2 0,0 1,0 1,0z"/>
       <path class="fil3" d="M585 281c0,1 0,1 0,2 0,0 -1,0 0,0 0,0 0,-1 0,-1 0,0 0,-1 1,0z"/>
       <path class="fil3" d="M578 279c0,0 1,-1 1,-1 0,0 1,0 1,0 0,1 -1,1 -1,1 0,0 -1,0 0,0z"/>
       <path class="fil3" d="M573 280c0,-1 1,-1 1,-2 0,0 1,0 0,0 0,1 -1,1 -1,2 0,0 -1,0 0,0z"/>
       <path class="fil3" d="M592 291l0 2c0,0 -1,0 -1,0l0 -2c0,0 1,0 1,0z"/>
       <path class="fil3" d="M587 291c0,-1 0,-1 1,-2 0,0 1,0 0,0 0,1 0,1 -1,2 0,0 -1,0 0,0z"/>
       <path class="fil3" d="M581 286c0,0 0,-1 1,-1 0,0 1,0 0,0 0,0 0,1 -1,1 0,0 -1,0 0,0z"/>
       <path class="fil3" d="M573 284l0 1c0,0 -1,0 -1,0l0 -1c0,0 1,0 1,0z"/>
       <path class="fil3" d="M570 284c0,0 0,1 0,1 0,0 0,-1 0,-1z"/>
       <path class="fil3" d="M575 285c0,-1 1,-1 1,-2 0,0 1,0 1,0 0,1 0,1 -1,2 0,0 -1,0 0,0z"/>
       <path class="fil3" d="M580 292c0,0 0,-1 1,-1 0,0 1,0 1,0 0,1 0,1 -1,2 0,0 -1,0 0,0z"/>
       <path class="fil3" d="M571 290c0,0 0,0 0,0 0,0 0,0 -1,1 0,0 0,0 0,0 0,0 0,-1 1,-1z"/>
       <path class="fil3" d="M568 289l0 1c0,0 -1,0 -1,0l0 -1c0,0 1,0 1,0z"/>
       <path class="fil3" d="M578 296l-1 2c0,0 -1,0 -1,0l1 -2c0,0 1,0 1,0z"/>
       <path class="fil3" d="M594 298c0,0 0,-1 1,0 0,1 0,1 -1,2 0,0 -1,0 0,0 0,0 0,-1 0,-1z"/>
       <path class="fil3" d="M586 301c1,-1 1,-1 1,-2 0,0 1,0 1,0 0,1 -1,2 -1,2 0,0 -1,0 0,0z"/>
       <path class="fil3" d="M579 301l-1 2c0,0 -1,0 -1,0l1 -2c0,0 1,0 1,0z"/>
       <path class="fil3" d="M585 295l0 2c0,0 -1,0 -1,0l0 -2c0,0 1,0 1,0z"/>
       <path class="fil3" d="M593 297c0,1 0,2 -1,3 0,0 -1,0 -1,0 0,-1 0,-2 1,-3 0,0 1,0 1,0z"/>
       <path class="fil3" d="M595 309c0,-1 1,-2 1,-3 0,0 1,0 1,0 0,1 -1,2 -1,3 0,0 -1,0 0,0z"/>
       <path class="fil3" d="M590 306c0,0 0,-1 0,-1 0,0 1,0 1,0 0,1 0,1 0,1 0,0 -1,0 0,0z"/>
       <path class="fil3" d="M582 317c0,0 1,-1 1,-1 0,0 1,0 0,0 0,0 -1,1 -1,1 0,0 -1,0 0,0z"/>
       <path class="fil3" d="M574 309l0 1c0,0 -1,0 -1,0l0 -1c0,0 1,0 1,0z"/>
       <path class="fil3" d="M589 316c1,-1 1,-2 1,-3 0,0 1,0 1,0 0,1 -1,3 -1,4 0,0 -1,0 0,0z"/>
       <path class="fil3" d="M592 318c0,-1 1,-2 1,-3 0,0 1,0 1,0 0,1 -1,2 -1,3 0,0 -1,0 0,0z"/>
       <path class="fil3" d="M584 304c0,0 1,0 1,0 0,1 0,1 0,2 0,0 -1,0 -1,0 0,-1 0,-1 0,-2z"/>
       <path class="fil3" d="M582 302c0,0 0,1 0,1 0,0 0,-1 0,-1z"/>
       <path class="fil3" d="M577 310c0,0 0,1 0,1 0,0 0,-1 0,-1z"/>
       <path class="fil3" d="M581 310c0,0 1,0 1,0 0,1 -1,2 -1,2 0,0 -1,0 -1,0 0,-1 1,-2 1,-2z"/>
       <path class="fil3" d="M587 310c0,0 0,1 0,1 0,0 0,-1 0,-1z"/>
       <path class="fil3" d="M577 319c1,-1 1,-2 1,-2 0,0 1,0 1,0 0,1 0,2 -1,3 0,0 -1,0 0,0z"/>
       <path class="fil3" d="M571 303c0,0 0,-1 0,-1 0,0 1,0 0,0 0,0 0,1 0,1 0,0 -1,0 0,0z"/>
       <path class="fil3" d="M573 314l-1 2c0,0 -1,0 -1,0l1 -2c0,0 1,0 1,0z"/>
       <path class="fil3" d="M564 299c0,1 0,1 0,2 0,0 -1,0 -1,0 0,-1 0,-1 0,-2 0,0 1,0 1,0z"/>
       <path class="fil3" d="M588 324c0,0 1,0 1,0 0,1 0,2 -1,2 0,0 -1,0 0,0 0,-1 1,-1 1,-2z"/>
       <path class="fil3" d="M582 331c0,-1 1,0 0,0 0,0 -1,0 0,0z"/>
       <path class="fil3" d="M581 324l0 1c0,0 -1,0 -1,0l0 -1c0,0 1,0 1,0z"/>
       <path class="fil3" d="M576 333c0,0 0,-1 0,-1 0,0 1,0 0,0 0,0 0,1 0,1 0,0 -1,0 0,0z"/>
       <path class="fil3" d="M572 333c0,0 1,0 0,0 0,1 0,1 0,2 0,0 -1,0 -1,0 0,-1 0,-1 0,-2z"/>
       <path class="fil3" d="M578 338c0,-1 1,-1 1,-2 0,0 1,0 0,0 0,1 -1,1 -1,2 0,0 -1,0 0,0z"/>
       <path class="fil3" d="M588 331c0,0 1,0 1,0 0,1 0,1 -1,2 0,0 -1,0 -1,0 0,-1 0,-1 1,-2z"/>
       <path class="fil3" d="M594 320c0,1 0,1 0,2 0,0 -1,0 -1,0 0,-1 0,-1 0,-2 0,0 0,0 1,0z"/>
       <path class="fil3" d="M582 339c0,0 1,-1 1,-1 0,0 1,0 0,0 0,0 -1,1 -1,1 0,0 -1,0 0,0z"/>
       <path class="fil3" d="M578 327c0,-1 0,-1 1,-2 0,0 1,0 1,0 0,1 0,1 -1,2 0,0 -1,0 -1,0z"/>
       <path class="fil3" d="M586 320c0,1 -1,1 -1,2 0,0 -1,0 -1,0 1,-3 1,-2 1,-2z"/>
       <path class="fil3" d="M591 326l1 -2c0,0 1,0 1,0l-1 2c0,0 -1,0 -1,0z"/>
       <path class="fil3" d="M574 322l0 2c0,0 -1,0 -1,0l0 -2c0,0 1,0 1,0z"/>
       <path class="fil3" d="M571 317l-1 2c0,0 -1,0 -1,0l1 -2c0,0 1,0 1,0z"/>
       <path class="fil3" d="M568 331c0,0 0,1 0,1 0,0 -1,0 -1,0 0,0 0,-1 0,-1 0,0 1,0 1,0z"/>
       <path class="fil3" d="M571 342c0,0 1,-1 1,-1 0,0 1,0 -1,1 0,0 -1,0 0,0z"/>
       <path class="fil3" d="M564 327c0,1 0,1 0,2 0,0 -1,0 -1,0 0,-1 0,-1 0,-2 0,0 1,0 1,0z"/>
       <path class="fil3" d="M564 317c0,1 0,2 0,2 0,0 -1,0 -1,0 0,-1 0,-2 0,-2 0,0 1,0 1,0z"/>
       <path class="fil3" d="M563 310l-1 2c0,0 -1,0 -1,0l1 -2c0,0 1,0 1,0z"/>
       <path class="fil3" d="M564 305l0 2c0,0 -1,0 -1,0l0 -2c0,0 1,0 1,0z"/>
       <path class="fil3" d="M567 295c0,0 0,1 0,1 0,0 -1,0 -1,0 0,0 0,-1 0,-1 0,0 1,0 1,0z"/>
       <path class="fil3" d="M622 273c0,1 1,1 1,2 0,0 0,1 0,0 0,-1 -1,-1 -1,-2 0,0 0,-1 0,0z"/>
       <path class="fil3" d="M624 272c1,0 1,1 2,1 0,0 0,1 0,0 0,-1 -1,-1 -2,-1 0,0 0,-1 0,-1z"/>
       <path class="fil3" d="M627 278c0,1 0,1 0,2 0,0 0,1 -1,0 0,-1 0,-1 0,-2 0,0 0,-1 1,0z"/>
       <path class="fil3" d="M628 277c0,0 1,1 1,1 0,0 0,1 0,0 0,0 -1,-1 -1,-1 0,0 0,-1 0,0z"/>
       <path class="fil3" d="M631 278c0,1 1,1 1,2 0,0 0,1 0,0 0,-1 -1,-1 -1,-2 0,0 0,-1 0,0z"/>
       <path class="fil3" d="M632 284c0,1 0,1 0,2 0,0 0,1 -1,0 0,-1 0,-1 0,-2 0,0 0,-1 1,0z"/>
       <path class="fil3" d="M628 284c0,1 0,2 0,2 0,0 -1,0 -1,0 0,-1 0,-1 0,-2 0,0 0,0 1,0z"/>
       <path class="fil3" d="M630 281c0,0 1,1 1,2 0,0 0,0 -1,0 0,0 0,-1 -1,-1 0,0 0,-1 0,0z"/>
       <path class="fil3" d="M631 291c0,1 0,1 0,2 0,0 -1,0 -1,0 0,-1 0,-1 0,-2 0,0 1,0 1,0z"/>
       <path class="fil3" d="M634 290l1 1c0,0 0,1 0,0 0,0 0,-1 -1,-1 0,0 0,-1 0,0z"/>
       <path class="fil3" d="M636 290c0,1 0,1 1,2 0,0 0,0 -1,0 0,-1 0,-1 -1,-2 0,0 0,0 1,0z"/>
       <path class="fil3" d="M636 296c0,1 1,1 0,2 0,0 -1,0 -1,0 0,-1 0,-1 0,-2 0,0 0,-1 0,0z"/>
       <path class="fil3" d="M632 296c0,0 0,1 0,1 0,0 0,-1 0,-1z"/>
       <path class="fil3" d="M631 299c0,0 0,1 0,1 0,0 0,1 -1,0 0,0 0,-1 0,-1 0,0 0,-1 1,0z"/>
       <path class="fil3" d="M634 300c0,0 0,1 0,1 0,0 0,0 -1,0 0,0 0,-1 0,-1 0,0 0,0 1,0z"/>
       <path class="fil3" d="M638 301c0,1 0,1 0,2 0,0 0,0 -1,0 0,-1 0,-1 0,-2 0,0 0,0 1,0z"/>
       <path class="fil3" d="M642 306c0,1 0,1 0,2 0,0 -1,0 0,0 0,0 0,-1 0,-1 0,0 1,0 1,0z"/>
       <path class="fil3" d="M640 309c0,1 0,2 0,2 0,0 -1,0 -1,0 0,-1 0,-1 0,-2 0,0 0,0 1,0z"/>
       <path class="fil3" d="M636 308c0,1 0,1 0,2 0,0 -1,0 -1,0 0,-1 0,-1 0,-2 0,0 0,-1 1,0z"/>
       <path class="fil3" d="M633 307l-1 2c0,0 -1,0 -1,0l1 -2c0,0 1,0 1,0z"/>
       <path class="fil3" d="M635 304l0 1c0,0 -1,0 -1,0l0 -1c0,0 1,0 1,0z"/>
       <path class="fil3" d="M638 315c0,1 0,2 -1,3 0,0 -1,0 -1,0 0,-1 1,-2 1,-3 0,0 1,0 1,0z"/>
       <path class="fil3" d="M638 316c0,0 1,0 1,0 0,1 0,1 -1,2 0,0 -1,0 -1,0 0,-1 0,-1 1,-2z"/>
       <path class="fil3" d="M633 326c0,-1 1,-1 1,-2 0,0 1,0 -1,2 0,0 -1,0 0,0z"/>
       <path class="fil3" d="M634 314c0,1 0,2 -1,2 0,0 -1,0 -1,0 0,-1 0,-2 1,-2 0,0 1,0 1,0z"/>
       <path class="fil3" d="M630 323c0,-1 1,-1 1,-2 0,0 1,0 1,0 0,1 -1,1 -1,2 0,0 -1,0 -1,0z"/>
       <path class="fil3" d="M629 315c0,-1 1,-1 1,-2 0,0 1,0 1,0 0,1 0,2 -1,2 0,0 -1,0 0,0z"/>
       <path class="fil3" d="M626 323c0,-1 1,-1 1,-2 0,0 1,0 0,0 0,1 -1,1 -1,2 0,0 -1,0 0,0z"/>
       <path class="fil3" d="M629 331c0,-1 1,-2 1,-3 0,0 1,0 1,0 0,1 -1,2 -1,3 0,0 -1,0 -1,0z"/>
       <path class="fil3" d="M625 332l1 -2c0,0 1,0 0,0l-1 2c0,0 -1,0 0,0z"/>
       <path class="fil3" d="M623 330c0,-1 1,-2 1,-2 0,0 1,0 0,0 0,1 -1,2 -1,2 0,0 -1,0 0,0z"/>
       <path class="fil3" d="M626 328c0,0 0,-1 0,-1 0,0 1,0 0,0 0,0 0,1 0,1 0,0 -1,0 0,0z"/>
       <path class="fil3" d="M620 339c1,-1 1,-2 2,-3 0,0 1,0 0,0 -1,1 -1,2 -2,3 0,0 -1,0 0,0z"/>
       <path class="fil3" d="M618 338c1,-1 1,-2 1,-3 0,0 1,0 1,0 0,1 -1,2 -2,3 0,0 -1,0 0,0z"/>
       <path class="fil3" d="M615 343c0,0 1,-1 1,-1 0,0 1,0 0,0 0,0 -1,1 -1,1 0,0 -1,0 0,0z"/>
       <path class="fil3" d="M623 333c0,0 1,-1 1,-1 0,0 1,0 0,0 0,0 -1,1 -1,1 0,0 -1,0 0,0z"/>
       <path class="fil3" d="M612 345c0,0 1,0 1,-1 0,0 1,0 0,0 0,1 -1,1 -2,1 0,0 0,0 0,-1z"/>
       <path class="fil3" d="M607 346c0,0 1,-1 1,-1 0,0 1,0 0,0 0,0 -1,1 -1,1 0,0 -1,0 0,0z"/>
       <path class="fil3" d="M577 254c1,0 2,0 3,1 0,0 0,1 0,1 -1,0 -2,-1 -3,-1 0,0 0,-1 0,-1z"/>
       <path class="fil3" d="M575 253c1,0 1,0 2,0 0,0 0,1 0,1 0,0 -1,0 -1,0 0,0 0,0 0,-1z"/>
       <path class="fil3" d="M573 256c0,0 1,-1 1,-1 0,0 1,0 0,0 0,0 -1,1 -1,1 0,0 -1,0 0,0z"/>
       <path class="fil3" d="M571 255l1 -1c0,0 1,0 0,0 0,0 -1,0 -1,1 0,0 -1,0 0,0z"/>
       <path class="fil3" d="M564 259c1,0 1,0 2,-1 0,0 1,0 0,0 -1,1 -1,1 -2,1 0,0 0,-1 0,-1z"/>
       <path class="fil3" d="M566 257c0,0 0,1 0,1 0,0 -1,0 -1,0 0,0 0,0 1,0z"/>
       <path class="fil3" d="M558 260l2 -1c0,0 1,0 0,0 -1,0 -1,1 -2,1 0,0 -1,0 0,0z"/>
       <path class="fil3" d="M555 258c1,0 1,0 2,0 0,0 1,0 0,0 -1,0 -2,1 -2,1 0,0 0,-1 0,-1z"/>
       <path class="fil3" d="M553 252c1,0 1,0 2,-1 0,0 0,0 0,1 -1,0 -1,0 -2,1 0,0 0,0 0,-1z"/>
       <path class="fil3" d="M569 250c0,0 0,1 0,1 0,0 -1,0 -1,0 0,0 0,0 1,0z"/>
       <path class="fil3" d="M552 261c1,0 1,-1 2,-1 0,0 0,0 0,1l-2 1c0,0 0,0 0,-1z"/>
       <path class="fil3" d="M553 256c0,0 1,-1 1,-1 0,0 1,0 0,0 0,0 -1,1 -1,1 0,0 -1,0 0,0z"/>
       <path class="fil3" d="M549 254c1,0 2,-1 2,-1 0,0 0,0 0,1 -1,0 -2,1 -2,1 0,0 0,0 0,-1z"/>
       <path class="fil3" d="M549 265c1,-1 1,-1 2,-2 0,0 1,0 0,0 -1,1 -1,1 -2,2 0,0 -1,0 0,0z"/>
       <path class="fil3" d="M549 261c1,0 1,-1 2,-1 0,0 1,0 0,0 -1,0 -1,1 -2,1 0,0 -1,0 0,0z"/>
       <path class="fil3" d="M547 257c1,0 1,0 2,0 0,0 0,0 0,1 -1,0 -1,0 -2,0 0,0 0,0 0,-1z"/>
       <path class="fil3" d="M546 265c0,0 1,-1 1,-1 0,0 1,0 0,0 0,0 -1,1 -1,1 0,0 -1,0 0,0z"/>
       <path class="fil3" d="M544 261c0,0 0,-1 1,-1 0,0 1,0 0,0 0,0 0,1 -1,1 0,0 -1,0 0,0z"/>
       <path class="fil3" d="M544 258c0,0 0,1 0,1 0,0 0,-1 0,-1z"/>
       <path class="fil3" d="M543 265l1 -1c0,0 1,0 0,0l-1 1c0,0 -1,0 0,0z"/>
       <path class="fil3" d="M545 268c0,0 1,0 0,0 -1,1 -1,1 -1,1 0,0 0,-1 1,-1z"/>
       <path class="fil3" d="M540 266l1 -1c0,0 1,0 0,0l-1 1c0,0 -1,0 0,0z"/>
       <path class="fil3" d="M539 263c0,0 1,-1 1,-1 0,0 1,0 0,0 0,0 -1,1 -1,1 0,0 -1,0 0,0z"/>
       <path class="fil3" d="M546 269c0,0 1,-1 1,-1 0,0 1,0 0,0l-1 1c0,0 -1,0 0,0z"/>
       <path class="fil3" d="M541 275c0,-1 1,-2 1,-2 0,0 1,0 1,0 0,1 -1,2 -1,2 0,0 -1,0 0,0z"/>
       <path class="fil3" d="M539 271c1,0 1,-1 2,-2 0,0 1,0 0,0 -1,1 -1,1 -2,2 0,0 -1,0 0,0z"/>
       <path class="fil3" d="M535 267c0,0 0,-1 1,-1 0,0 1,0 0,0 0,0 0,1 -1,1 0,0 -1,0 0,0z"/>
       <path class="fil3" d="M540 276l-1 2c0,0 -1,0 -1,0l1 -2c0,0 1,0 1,0z"/>
       <path class="fil3" d="M536 275c0,0 1,-1 1,-1 0,0 1,0 0,0 0,0 -1,1 -1,1 0,0 -1,0 0,0z"/>
       <path class="fil3" d="M534 272c0,0 1,-1 1,-1 0,0 1,0 0,0 0,0 -1,1 -1,1 0,0 -1,0 0,0z"/>
       <path class="fil3" d="M537 283c0,-1 1,-1 1,-2 0,0 1,0 1,0 0,1 0,2 -1,2 0,0 -1,0 0,0z"/>
       <path class="fil3" d="M538 282c0,-1 1,-1 1,-2 0,0 1,0 0,0 0,1 -1,1 -1,2 0,0 -1,0 0,0z"/>
       <path class="fil3" d="M535 280c0,0 0,-1 0,-1 0,0 1,0 1,0 0,0 0,1 -1,1 0,0 -1,0 0,0z"/>
       <path class="fil3" d="M532 277l0 1c0,0 -1,0 -1,0l0 -1c0,0 1,0 1,0z"/>
       <path class="fil3" d="M535 285l-1 2c0,0 -1,0 -1,0l1 -2c0,0 1,0 1,0z"/>
       <path class="fil3" d="M533 282c0,0 1,0 1,0 0,1 0,1 -1,2 0,0 -1,0 -1,0 0,-1 0,-1 1,-2z"/>
       <path class="fil3" d="M532 290c0,0 0,1 0,1 0,0 -1,0 -1,0 0,0 0,-1 0,-1 0,0 1,0 1,0z"/>
       <path class="fil3" d="M536 291c0,1 0,1 0,2 0,0 -1,0 -1,0 0,-1 0,-1 0,-2 0,0 1,0 1,0z"/>
       <path class="fil3" d="M538 286l0 1c0,0 -1,0 -1,0l0 -1c0,0 1,0 1,0z"/>
       <path class="fil3" d="M534 297l0 2c0,0 -1,0 -1,0 0,-1 0,-2 0,-2 0,0 1,0 1,0z"/>
       <path class="fil3" d="M530 286l0 2c0,0 -1,0 -1,0l0 -2c0,0 1,0 1,0z"/>
       <path class="fil3" d="M529 283l0 1c0,0 -1,0 -1,0l0 -1c0,0 1,0 1,0z"/>
       <path class="fil3" d="M528 294c0,1 0,2 0,2 0,0 -1,0 -1,0 0,-1 0,-2 0,-2 0,0 1,0 1,0z"/>
       <path class="fil3" d="M532 300c0,0 0,1 0,1 0,0 0,1 -1,0 0,0 0,-1 0,-1 0,0 0,-1 1,0z"/>
       <path class="fil3" d="M530 292c0,1 0,1 0,2 0,0 -1,0 -1,0 0,0 0,-1 0,-1 0,0 0,-1 0,0z"/>
       <path class="fil3" d="M530 302c0,0 0,1 0,1 0,0 0,1 -1,0 0,0 0,-1 0,-1 0,0 0,-1 1,0z"/>
       <path class="fil3" d="M532 295c0,1 0,2 0,3 0,0 -1,0 -1,0 0,-1 0,-2 0,-3 0,0 1,0 1,0z"/>
       <path class="fil3" d="M535 306c0,1 0,1 0,2 0,0 -1,0 -1,0 0,-1 0,-1 0,-2 0,0 0,-1 1,0z"/>
       <path class="fil3" d="M532 309c0,1 0,2 0,3 0,0 -1,0 -1,0 0,-1 0,-2 0,-2 0,0 1,0 1,0z"/>
       <path class="fil3" d="M535 303l-1 2c0,0 -1,0 -1,0l1 -2c0,0 1,0 1,0z"/>
       <path class="fil3" d="M531 307l0 2c0,0 -1,0 -1,0l0 -2c0,0 1,0 1,0z"/>
       <path class="fil3" d="M528 300l0 2c0,0 -1,0 -1,0l0 -2c0,0 1,0 1,0z"/>
       <path class="fil3" d="M527 291c0,1 0,1 0,2 0,0 -1,0 -1,0 0,-1 0,-1 0,-2 0,0 1,0 1,0z"/>
       <path class="fil3" d="M536 313c0,1 0,1 0,2 0,0 -1,0 -1,0 0,-1 0,-1 0,-2 0,0 0,-1 0,0z"/>
       <path class="fil3" d="M534 316c0,0 0,1 0,1 0,0 0,1 -1,0 0,0 0,-1 0,-1 0,0 0,-1 1,0z"/>
       <path class="fil3" d="M537 322c0,1 0,1 0,2 0,0 0,0 -1,0 0,-1 0,-1 0,-2 0,0 0,0 1,0z"/>
       <path class="fil3" d="M539 327c0,1 1,2 1,3 0,0 0,1 0,0 0,-1 -1,-2 -1,-3 0,0 0,-1 0,0z"/>
       <path class="fil3" d="M537 318c0,0 0,1 0,1 0,0 0,0 -1,0 0,0 0,-1 0,-1 0,0 0,0 1,0z"/>
       <path class="fil3" d="M539 324c0,0 0,1 0,1 0,0 0,1 -1,0 0,0 0,-1 0,-1 0,0 0,-1 1,0z"/>
       <path class="fil3" d="M535 321c0,0 0,1 0,1 0,0 0,1 -1,0 0,0 0,-1 0,-1 0,0 0,-1 1,0z"/>
      </g>
      <g>
       <path class="fil1" d="M610 266c1,0 1,1 2,2 0,0 0,1 -1,0 0,-1 -1,-1 -1,-2 0,0 0,-1 0,-1z"/>
       <path class="fil1" d="M607 265c1,1 1,2 2,3 0,0 0,0 -1,0 0,-1 -1,-2 -1,-3 0,0 0,-1 0,0z"/>
       <path class="fil1" d="M603 266c0,1 0,1 0,2 0,0 -1,0 -1,0 0,-1 0,-1 0,-2 0,0 0,-1 0,0z"/>
       <path class="fil1" d="M601 266c0,1 0,1 0,2 0,0 0,0 -1,0 0,-1 0,-1 0,-2 0,0 0,0 1,0z"/>
       <path class="fil1" d="M613 270c0,0 1,1 1,2 0,0 0,0 -1,0 0,-1 0,-1 -1,-1 0,0 0,-1 0,0z"/>
       <path class="fil1" d="M611 271c1,0 1,1 1,2 0,0 -1,0 -1,0 0,0 0,-1 0,-1 0,0 0,-1 0,0z"/>
       <path class="fil1" d="M607 271c0,0 0,1 0,1 0,0 0,-1 0,-1 0,0 0,-1 0,0z"/>
       <path class="fil1" d="M605 273c0,1 0,1 0,2 0,0 0,0 -1,0 0,-1 0,-1 0,-2 0,0 0,0 1,0z"/>
       <path class="fil1" d="M610 275c1,1 1,1 1,2 0,0 0,0 -1,0 0,-1 -1,-1 -1,-2 0,0 0,-1 0,0z"/>
       <path class="fil1" d="M617 275c1,1 1,1 1,2 0,0 0,0 -1,0 0,-1 -1,-1 -1,-2 0,0 0,-1 0,0z"/>
       <path class="fil1" d="M618 274c1,1 1,2 1,2 0,0 0,0 -1,0 0,-1 -1,-2 -1,-2 0,0 0,-1 0,0z"/>
       <path class="fil1" d="M617 279c0,1 1,1 1,2 0,0 0,1 -1,0 0,-1 0,-1 -1,-2 0,0 0,-1 0,0z"/>
       <path class="fil1" d="M611 281c0,1 0,2 0,2 0,0 -1,0 -1,0 0,-1 0,-2 0,-2 0,0 1,0 1,0z"/>
       <path class="fil1" d="M614 276c0,1 0,1 1,2 0,0 0,0 -1,0 0,-1 0,-1 -1,-2 0,0 0,0 1,0z"/>
       <path class="fil1" d="M609 278c0,1 0,1 0,2 0,0 -1,0 0,0 0,0 0,-1 0,-1 0,0 0,-1 0,0z"/>
       <path class="fil1" d="M606 281c0,0 0,1 0,1 0,0 -1,0 -1,0 0,0 0,-1 0,-1 0,0 1,0 1,0z"/>
       <path class="fil1" d="M614 282c0,1 1,1 1,2 0,0 0,0 -1,0 0,-1 0,-1 -1,-2 0,0 0,-1 0,0z"/>
       <path class="fil1" d="M622 280c0,1 0,1 1,2 0,0 0,1 0,0 0,-1 0,-1 -1,-2 0,0 0,-1 0,0z"/>
       <path class="fil1" d="M621 284c0,1 0,1 0,2 0,0 0,0 -1,0l0 -2c0,0 0,0 1,0z"/>
       <path class="fil1" d="M618 282c0,1 0,2 0,2 0,0 0,1 -1,0 0,-1 0,-2 0,-2 0,0 0,-1 1,0z"/>
       <path class="fil1" d="M616 287c0,1 1,1 0,2 0,0 -1,0 -1,0 0,-1 0,-1 0,-2 0,0 0,-1 0,0z"/>
       <path class="fil1" d="M613 287c0,1 0,1 0,2 0,0 -1,0 -1,0 0,-1 0,-1 0,-2 0,0 0,-1 0,0z"/>
       <path class="fil1" d="M610 287c0,0 0,1 0,1 0,0 0,0 0,-1 0,0 0,0 1,0z"/>
       <path class="fil1" d="M608 287c0,1 0,1 0,2 0,0 -1,0 -1,0 0,-1 0,-1 0,-2 0,0 1,0 1,0z"/>
       <path class="fil1" d="M622 288c0,1 0,2 1,3 0,0 0,1 -1,0 0,-1 0,-2 -1,-2 0,0 0,-1 0,0z"/>
       <path class="fil1" d="M625 288c0,1 0,2 0,3 0,0 -1,0 -1,0 0,-1 0,-2 0,-3 0,0 0,0 1,0z"/>
       <path class="fil1" d="M624 296c0,1 0,1 0,2 0,0 -1,0 -1,0 0,-1 0,-1 0,-2 0,0 0,-1 0,0z"/>
       <path class="fil1" d="M621 292c0,1 0,2 0,2 0,0 -1,0 -1,0 0,-1 0,-1 0,-2 0,0 0,-1 0,0z"/>
       <path class="fil1" d="M618 295c0,0 0,1 0,1 0,0 0,-1 0,-1z"/>
       <path class="fil1" d="M613 294c0,1 0,1 0,2 0,0 -1,0 -1,0 0,-1 0,-1 0,-2 0,0 0,0 1,0z"/>
       <path class="fil1" d="M607 294c0,1 0,2 0,2 0,0 -1,0 -1,0 0,-1 0,-1 0,-2 0,0 0,-1 1,0z"/>
       <path class="fil1" d="M606 295c0,0 0,1 0,1 0,0 0,-1 0,-1z"/>
       <path class="fil1" d="M619 301c0,1 0,1 0,2 0,0 -1,0 -1,0l0 -2c0,0 1,0 1,0z"/>
       <path class="fil1" d="M614 303c0,1 0,1 0,2 0,0 -1,0 -1,0 0,-1 0,-1 0,-2 0,0 1,0 1,0z"/>
       <path class="fil1" d="M610 300c0,1 0,2 -1,3 0,0 -1,0 -1,0 0,-1 0,-2 1,-3 0,0 1,0 1,0z"/>
       <path class="fil1" d="M617 297c0,1 0,2 0,2 0,0 -1,0 -1,0 0,-1 0,-1 0,-2 0,0 0,-1 1,0z"/>
       <path class="fil1" d="M624 301c0,1 0,2 0,3 0,0 -1,0 -1,0 0,-1 0,-2 0,-3 0,0 0,-1 1,0z"/>
       <path class="fil1" d="M623 299c0,1 0,2 0,3 0,0 -1,0 -1,0 0,-1 0,-2 0,-2 0,0 1,0 1,0z"/>
       <path class="fil1" d="M623 310c0,1 0,2 0,3 0,0 -1,0 -1,0 0,-1 0,-2 0,-3 0,0 1,0 1,0z"/>
       <path class="fil1" d="M620 308c0,1 0,1 0,2 0,0 -1,0 -1,0l0 -2c0,0 1,0 1,0z"/>
       <path class="fil1" d="M614 312c0,1 0,1 0,2 0,0 -1,0 0,0 0,0 0,-1 0,-1 0,0 0,-1 1,0z"/>
       <path class="fil1" d="M615 315c0,1 0,2 -1,3 0,0 -1,0 0,0 1,-1 1,-2 1,-3 0,0 0,-1 1,0z"/>
       <path class="fil1" d="M616 308c0,1 0,1 0,2 0,0 -1,0 -1,0 0,-1 0,-1 0,-2 0,0 1,0 1,0z"/>
       <path class="fil1" d="M610 312c0,1 0,1 0,2 0,0 -1,0 0,0 0,0 0,-1 0,-2 0,0 1,0 1,0z"/>
       <path class="fil1" d="M611 305l0 2c0,0 -1,0 -1,0 0,-1 0,-1 0,-2 0,0 1,0 1,0z"/>
       <path class="fil1" d="M607 309l0 1c0,0 -1,0 -1,0l0 -1c0,0 1,0 1,0z"/>
       <path class="fil1" d="M607 303c0,1 0,1 0,2 0,0 -1,0 -1,0 0,-1 0,-1 0,-2 0,0 1,0 1,0z"/>
       <path class="fil1" d="M620 316c0,1 0,3 -1,4 0,0 -1,0 -1,0 0,-1 1,-2 1,-3 0,0 0,-1 1,0z"/>
       <path class="fil1" d="M622 315c0,1 0,1 0,2 0,0 -1,0 -1,0 0,-1 0,-1 0,-2 0,0 0,-1 0,0z"/>
       <path class="fil1" d="M615 321l-1 3c0,0 -1,0 -1,0l1 -3c0,0 1,0 1,0z"/>
       <path class="fil1" d="M618 313l0 2c0,0 -1,0 -1,0l0 -2c0,0 1,0 1,0z"/>
       <path class="fil1" d="M617 328c1,-1 1,-3 2,-4 0,0 1,0 0,0 -1,1 -1,3 -2,4 0,0 -1,0 0,0z"/>
       <path class="fil1" d="M613 331c1,-1 1,-2 1,-3 0,0 1,0 1,0 0,1 -1,2 -1,3 0,0 -1,0 0,0z"/>
       <path class="fil1" d="M611 322c0,-1 1,-1 1,-2 0,0 1,0 1,0 0,1 0,2 -1,2 0,0 -1,0 0,0z"/>
       <path class="fil1" d="M609 329c0,-1 1,-2 1,-3 0,0 1,0 1,0 0,1 0,2 -1,3 0,0 -1,0 0,0z"/>
       <path class="fil1" d="M609 317c0,1 0,2 -1,3 0,0 -1,0 0,0 0,-1 1,-2 1,-3 0,0 0,-1 1,0z"/>
       <path class="fil1" d="M606 324c0,0 1,0 1,0 0,0 0,1 0,1 0,0 -1,0 -1,0 0,0 0,-1 0,-1z"/>
       <path class="fil1" d="M604 328c0,0 0,1 0,1 0,0 0,-1 0,-1z"/>
       <path class="fil1" d="M605 317c0,0 1,0 1,0 0,1 -1,2 -1,3 0,0 -1,0 -1,0 0,-1 1,-2 1,-3z"/>
       <path class="fil1" d="M603 321l-1 2c0,0 -1,0 -1,0l1 -2c0,0 1,0 1,0z"/>
       <path class="fil1" d="M608 336c1,-1 2,-2 2,-3 0,0 1,0 0,0 -1,1 -1,2 -2,3 0,0 -1,0 0,0z"/>
       <path class="fil1" d="M607 334c0,0 0,-1 0,-1 0,0 1,0 0,0 0,0 0,1 0,1 0,0 -1,0 0,0z"/>
       <path class="fil1" d="M603 331l0 1c0,0 -1,0 -1,0l0 -1c0,0 1,0 1,0z"/>
       <path class="fil1" d="M602 340c1,-1 2,-1 3,-2 0,0 1,0 0,0 -1,1 -2,2 -3,2 0,0 -1,0 0,0z"/>
       <path class="fil1" d="M597 341c1,-1 2,-1 2,-2 0,0 1,0 0,0 -1,1 -1,2 -2,2 0,0 -1,0 0,0z"/>
       <path class="fil1" d="M600 337c1,-1 1,-1 1,-2 0,0 1,0 1,0 0,1 -1,2 -1,2 0,0 -1,0 0,0z"/>
       <path class="fil1" d="M599 331c1,-1 1,-2 2,-3 0,0 1,0 0,0 -1,1 -1,2 -2,3 0,0 -1,0 0,0z"/>
       <path class="fil1" d="M596 337c1,-1 1,-1 2,-2 0,0 1,0 0,0 -1,1 -1,1 -2,2 0,0 -1,0 0,0z"/>
       <path class="fil1" d="M593 336c0,-1 0,-1 1,-2 0,0 1,0 0,0 0,1 0,1 -1,2 0,0 -1,0 0,0z"/>
       <path class="fil1" d="M594 345c1,0 1,-1 1,-1 0,0 1,0 0,0 0,1 -1,1 -2,2 0,0 -1,0 0,0z"/>
       <path class="fil1" d="M592 343c0,0 1,-1 1,-1 0,0 1,0 0,0 0,0 -1,1 -1,1 0,0 -1,0 0,0z"/>
       <path class="fil1" d="M589 342c0,0 0,-1 1,-1 0,0 1,0 0,0 0,0 0,1 -1,1 0,0 -1,0 0,0z"/>
       <path class="fil1" d="M589 346c1,0 1,-1 2,-1 0,0 1,0 0,0 -1,0 -1,1 -2,1 0,0 -1,0 0,0z"/>
       <path class="fil1" d="M585 345l1 -1c0,0 1,0 0,0l-1 1c0,0 -1,0 0,0z"/>
       <path class="fil1" d="M583 345c0,0 0,1 0,1 0,0 0,-1 0,-1z"/>
       <path class="fil1" d="M601 342c0,0 1,0 0,0 -1,1 -1,1 -1,1 0,0 0,0 1,-1z"/>
       <path class="fil1" d="M584 260c1,0 1,0 2,0 0,0 0,1 0,1 -1,0 -1,0 -1,0 0,0 -1,0 0,0z"/>
       <path class="fil1" d="M580 260c1,0 2,-1 3,-1 0,0 1,0 0,0 -1,1 -2,1 -3,1 0,0 0,0 0,-1z"/>
       <path class="fil1" d="M607 259c1,0 1,0 2,-1 0,0 1,0 0,0 -1,0 -1,1 -2,1 0,0 0,0 0,-1z"/>
       <path class="fil1" d="M606 257c1,0 1,0 2,0 0,0 0,0 0,1 -1,0 -1,0 -2,0 0,0 0,0 0,-1z"/>
       <path class="fil1" d="M606 256c0,0 1,0 1,0 0,0 0,0 0,1 0,0 -1,0 -1,0 0,0 0,0 0,-1z"/>
       <path class="fil1" d="M613 257c1,0 1,0 2,0 0,0 0,0 0,1 -1,0 -2,0 -2,0 0,0 0,-1 0,-1z"/>
       <path class="fil1" d="M611 254c1,0 2,0 3,0 0,0 0,1 0,1 -1,0 -2,0 -3,0 0,0 0,0 0,-1z"/>
       <path class="fil1" d="M611 256c1,0 1,0 1,-1 0,0 1,0 0,0 -1,0 -1,1 -2,1 0,0 0,-1 0,-1z"/>
       <path class="fil1" d="M620 257c1,0 1,0 2,0 0,0 0,1 0,0 0,0 -1,0 -1,0 0,0 -1,0 0,0z"/>
       <path class="fil1" d="M618 255c1,0 1,0 2,0 0,0 0,1 0,1 -1,0 -1,0 -2,0 0,0 0,-1 0,-1z"/>
       <path class="fil1" d="M618 257c0,0 1,0 1,0 0,0 0,1 0,1 -1,0 -1,0 -2,0 0,0 0,-1 0,-1z"/>
       <path class="fil1" d="M628 263c0,1 1,1 1,2 0,0 0,1 0,0 0,-1 -1,-1 -1,-2 0,0 0,-1 0,0z"/>
       <path class="fil1" d="M625 259c0,0 1,1 0,1 0,0 0,0 -1,-1 0,0 0,-1 0,0z"/>
       <path class="fil1" d="M587 248c1,0 1,1 2,2 0,0 0,0 -1,0 0,-1 -1,-1 -1,-2 0,0 0,-1 0,0z"/>
       <path class="fil1" d="M587 250c0,1 1,1 1,1 0,0 0,1 0,0 0,0 -1,-1 -1,-2 0,0 0,-1 0,0z"/>
       <path class="fil1" d="M586 252c1,1 1,1 2,2 0,0 0,1 0,0l-2 -2c0,0 0,-1 0,0z"/>
       <path class="fil1" d="M583 245c1,0 2,1 3,2 0,0 0,1 0,0 -1,-1 -2,-2 -3,-2 0,0 0,-1 0,-1z"/>
       <path class="fil1" d="M582 246c1,0 1,1 2,1 0,0 0,1 0,0 -1,0 -1,-1 -2,-1 0,0 0,-1 0,0z"/>
       <path class="fil1" d="M577 244c1,0 2,0 2,0 0,0 0,1 0,1 -1,0 -2,0 -2,0 0,0 0,-1 0,-1z"/>
       <path class="fil1" d="M576 246c1,0 2,0 2,0 0,0 0,1 0,1 -1,0 -1,0 -2,0 0,0 0,0 0,-1z"/>
       <path class="fil1" d="M573 247c0,0 1,0 1,1 0,0 0,1 0,0 0,0 -1,0 -1,-1 0,0 0,-1 0,0z"/>
       <path class="fil1" d="M571 245c1,0 2,0 2,0 0,0 0,1 0,1 -1,0 -1,0 -2,0 0,0 -1,0 0,0z"/>
       <path class="fil1" d="M568 247c1,-1 1,-1 2,-1 0,0 0,1 0,1 -1,0 -1,0 -2,1 0,0 -1,0 0,0z"/>
       <path class="fil1" d="M576 265c1,-1 1,-1 2,-2 0,0 1,0 0,0 -1,1 -1,2 -2,2 0,0 -1,0 0,0z"/>
       <path class="fil1" d="M575 260l2 0c0,0 0,1 0,1 -1,0 -1,0 -2,0 0,0 0,-1 0,-1z"/>
       <path class="fil1" d="M575 259c1,0 2,-1 3,-1 0,0 0,0 0,1 -1,0 -2,1 -3,1 0,0 0,0 0,-1z"/>
       <path class="fil1" d="M572 266c1,-1 1,-2 2,-3 0,0 1,0 0,0 -1,1 -1,2 -2,3 0,0 -1,0 0,0z"/>
       <path class="fil1" d="M569 260c1,-1 2,-1 3,-1 0,0 0,0 0,1 -1,0 -2,1 -2,1 0,0 -1,0 0,0z"/>
       <path class="fil1" d="M563 264c1,-1 2,-2 3,-3 0,0 1,0 0,0 -1,1 -2,1 -3,2 0,0 -1,0 0,0z"/>
       <path class="fil1" d="M565 269c0,-1 1,-1 1,-2 0,0 1,0 0,0 0,1 -1,1 -1,2 0,0 -1,0 0,0z"/>
       <path class="fil1" d="M569 265c1,-1 1,-1 2,-2 0,0 1,0 0,0 -1,1 -1,1 -2,2 0,0 -1,0 0,0z"/>
       <path class="fil1" d="M562 269c1,-1 1,-1 2,-2 0,0 1,0 0,0 -1,0 -1,1 -2,2 0,0 -1,0 0,0z"/>
       <path class="fil1" d="M556 273c1,-1 1,-2 2,-3 0,0 1,0 0,0 -1,1 -1,2 -2,3 0,0 -1,0 0,0z"/>
       <path class="fil1" d="M561 277c0,-1 1,-1 1,-2 0,0 1,0 1,0 0,1 0,2 -1,2 0,0 -1,0 0,0z"/>
       <path class="fil1" d="M570 272c1,-1 1,-2 3,-3 0,0 1,0 0,0 -1,1 -2,2 -2,3 0,0 -1,0 0,0z"/>
       <path class="fil1" d="M573 272c0,0 1,-1 1,-1 0,0 1,0 0,0 0,0 -1,1 -1,1 0,0 -1,0 0,0z"/>
       <path class="fil1" d="M569 278c0,-1 1,-1 1,-2 0,0 1,0 0,0 0,1 -1,1 -1,2 0,0 -1,0 0,0z"/>
       <path class="fil1" d="M566 281l1 -2c0,0 1,0 0,0 0,1 -1,1 -1,2 0,0 -1,0 0,0z"/>
       <path class="fil1" d="M568 271c0,0 1,-1 1,-1 0,0 1,0 0,0 0,0 -1,1 -1,1 0,0 -1,0 0,0z"/>
       <path class="fil1" d="M562 279c0,-1 1,-1 1,-2 0,0 1,0 0,0 0,1 -1,1 -1,2 0,0 -1,0 0,0z"/>
       <path class="fil1" d="M565 274c0,-1 1,-1 1,-2 0,0 1,0 1,0 0,1 -1,1 -1,2 0,0 -1,0 0,0z"/>
       <path class="fil1" d="M562 271c0,0 1,0 0,0 0,0 0,0 -1,1 0,0 -1,0 -1,0 0,0 0,-1 1,-1z"/>
       <path class="fil1" d="M559 266l1 -1c0,0 1,0 0,0 0,0 -1,1 -1,1 0,0 -1,0 0,0z"/>
       <path class="fil1" d="M554 271c0,0 1,0 0,0 -1,1 -1,2 -2,3 0,0 -1,0 -1,0 0,-1 1,-2 2,-3z"/>
       <path class="fil1" d="M561 284c0,0 0,-1 0,-1 0,0 0,-1 1,0 0,1 0,1 0,2 0,0 -1,0 0,0z"/>
       <path class="fil1" d="M563 284c0,0 1,0 1,0 0,0 0,1 0,1 0,0 -1,0 -1,0 0,0 0,-1 0,-1z"/>
       <path class="fil1" d="M560 289c0,1 0,1 0,2 0,0 -1,0 -1,0 0,-1 0,-1 0,-2 0,0 1,0 1,0z"/>
       <path class="fil1" d="M557 282c0,0 1,-1 1,-2 0,0 1,0 1,0 0,1 0,2 -1,2 0,0 -1,0 0,0z"/>
       <path class="fil1" d="M554 280c0,-1 1,-2 1,-2 0,0 1,0 0,0 0,1 -1,2 -1,2 0,0 -1,0 0,0z"/>
       <path class="fil1" d="M558 276c0,0 1,-1 1,-1 0,0 1,0 0,0 0,0 -1,1 -1,1 0,0 -1,0 0,0z"/>
       <path class="fil1" d="M551 278c1,-1 1,-1 1,-2 0,0 1,0 1,0 0,1 -1,2 -1,2 0,0 -1,0 0,0z"/>
       <path class="fil1" d="M549 279c0,0 1,0 0,0 0,1 -1,2 -1,2 0,0 -1,0 -1,0 0,-1 1,-2 1,-3z"/>
       <path class="fil1" d="M557 287c0,-1 1,-1 1,-2 0,0 1,0 0,0 0,1 -1,1 -1,2 0,0 -1,0 0,0z"/>
       <path class="fil1" d="M554 285c0,0 1,0 1,0 0,0 0,1 0,1 0,0 -1,0 -1,0 0,0 0,-1 0,-1z"/>
       <path class="fil1" d="M559 336c0,1 1,1 2,2 0,0 0,1 0,0 -1,-1 -1,-1 -2,-2 0,0 0,-1 0,0z"/>
       <path class="fil1" d="M555 334c0,1 1,1 1,1 0,0 0,1 0,0 0,0 -1,-1 -1,-1 0,0 0,-1 0,0z"/>
       <path class="fil1" d="M557 330c0,1 1,1 1,2 0,0 0,1 0,0 -1,-1 -1,-1 -1,-2 0,0 0,0 1,0z"/>
       <path class="fil1" d="M553 328c0,1 1,1 0,1 0,0 0,0 -1,-1 0,0 0,-1 0,0z"/>
       <path class="fil1" d="M550 329c0,1 0,2 1,2 0,0 0,1 0,0 0,-1 -1,-2 -1,-2 0,0 1,0 1,0z"/>
       <path class="fil1" d="M547 326c0,1 1,2 1,3 0,0 0,0 -1,0 0,-1 -1,-2 -1,-3 0,0 0,0 1,0z"/>
       <path class="fil1" d="M552 323c0,0 0,1 0,1 0,0 -1,0 -1,0 0,0 0,-1 0,-1 0,0 1,0 1,0z"/>
       <path class="fil1" d="M553 316l0 1c0,0 0,1 -1,0l0 -1c0,0 0,-1 1,0z"/>
       <path class="fil1" d="M550 316c0,1 0,1 0,2 0,0 0,1 0,0 0,-1 0,-1 0,-2 0,0 1,0 1,0z"/>
       <path class="fil1" d="M547 308c0,1 0,2 0,3 0,0 -1,0 -1,0 0,-1 0,-2 0,-3 0,0 1,0 1,0z"/>
       <path class="fil1" d="M549 302c0,0 1,-1 1,-1 0,0 1,0 1,0 0,1 0,1 -1,1 0,0 -1,0 0,0z"/>
       <path class="fil1" d="M552 303c0,1 0,2 0,2 0,0 -1,0 -1,0 0,-1 0,-1 0,-2 0,0 1,0 1,0z"/>
       <path class="fil1" d="M552 295c0,0 0,1 0,1 0,0 -1,0 -1,0 0,0 0,-1 0,-1 0,0 1,0 1,0z"/>
       <path class="fil1" d="M549 294c0,0 1,0 0,0 0,0 0,1 -1,1 0,0 0,0 0,-1z"/>
       <path class="fil1" d="M550 286l-1 3c0,0 -1,0 -1,0l1 -3c0,0 1,0 1,0z"/>
       <path class="fil1" d="M559 294l-1 2c0,0 -1,0 -1,0l1 -2c0,0 1,0 1,0z"/>
       <path class="fil1" d="M555 293c0,-1 1,-1 1,-2 0,0 1,0 0,0 0,1 -1,1 -1,2 0,0 -1,0 0,0z"/>
       <path class="fil1" d="M557 299c0,1 0,2 0,3 0,0 -1,0 -1,0 0,-1 0,-2 0,-3 0,0 1,0 1,0z"/>
       <path class="fil1" d="M554 299c0,0 0,-1 1,-1 0,0 1,0 0,0 0,0 0,1 -1,1 0,0 -1,0 0,0z"/>
       <path class="fil1" d="M555 307c0,1 0,2 0,2 0,0 -1,0 -1,0 0,-1 0,-2 0,-2 0,0 1,0 1,0z"/>
       <path class="fil1" d="M556 312c0,1 0,1 0,2 0,0 -1,0 -1,0 0,-1 0,-1 0,-2 0,0 0,0 1,0z"/>
       <path class="fil1" d="M556 322c0,1 0,2 0,2 0,0 -1,0 -1,0 0,-1 0,-2 0,-2 0,0 0,0 1,0z"/>
       <path class="fil1" d="M553 310c0,1 0,1 0,2 0,0 -1,0 -1,0 0,-1 0,-1 0,-2 0,0 1,0 1,0z"/>
       <path class="fil1" d="M549 318c0,1 0,1 1,2 0,0 0,0 -1,0 0,-1 0,-1 -1,-2 0,0 0,0 1,0z"/>
       <path class="fil1" d="M545 319c0,1 0,2 0,3 0,0 -1,0 -1,0 0,-1 0,-2 0,-3 0,0 1,0 1,0z"/>
       <path class="fil1" d="M543 322c0,1 0,2 0,3 0,0 0,1 -1,0 0,-1 0,-2 0,-3 0,0 0,-1 1,0z"/>
       <path class="fil1" d="M548 323c0,0 0,1 0,1 0,0 0,-1 0,-1z"/>
       <path class="fil1" d="M546 313c0,0 0,1 0,1 0,0 0,-1 0,-1z"/>
       <path class="fil1" d="M542 313c0,1 0,1 0,2 0,0 0,1 0,0 0,-1 0,-1 0,-2 0,0 1,0 1,0z"/>
       <path class="fil1" d="M550 312l0 1c0,0 0,0 -1,0 0,0 0,-1 0,-1 0,0 0,0 1,0z"/>
       <path class="fil1" d="M546 305c0,1 0,2 0,3 0,0 -1,0 -1,0 0,-1 0,-2 0,-3 0,0 0,0 1,0z"/>
       <path class="fil1" d="M548 302c0,0 0,1 0,1 0,0 0,-1 0,-1z"/>
       <path class="fil1" d="M542 301c0,1 0,2 0,3 0,0 -1,0 -1,0 0,-1 0,-2 0,-3 0,0 0,0 1,0z"/>
       <path class="fil1" d="M542 306c0,1 0,2 0,2 0,0 0,1 -1,0l0 -2c0,0 0,-1 1,0z"/>
       <path class="fil1" d="M546 298c0,1 0,1 0,2 0,0 -1,0 -1,0 0,-1 0,-1 0,-2 0,0 1,0 1,0z"/>
       <path class="fil1" d="M543 295c0,1 0,2 0,3 0,0 -1,0 -1,0 0,-1 0,-2 0,-3 0,0 1,0 1,0z"/>
       <path class="fil1" d="M547 292c0,1 0,1 0,2 0,0 -1,0 -1,0 0,-1 0,-1 0,-2 0,0 1,0 1,0z"/>
       <path class="fil1" d="M545 289l-1 3c0,0 -1,0 -1,0l1 -3c0,0 1,0 1,0z"/>
       <path class="fil1" d="M546 287c0,0 1,-1 1,-2 0,0 1,0 1,0 0,1 0,1 -1,2 0,0 -1,0 0,0z"/>
       <path class="fil1" d="M545 284c0,0 1,0 0,0 0,1 -1,2 -1,3 0,0 -1,0 -1,0 0,-1 1,-2 1,-3z"/>
       <path class="fil1" d="M551 281c0,1 0,2 -1,3 0,0 -1,0 0,0 0,-1 1,-2 1,-2 0,0 1,0 1,0z"/>
       <path class="fil1" d="M549 279l1 -1c0,0 1,0 0,0l-1 1c0,0 -1,0 0,0z"/>
       <path class="fil1" d="M548 295l-1 2c0,0 -1,0 -1,0l1 -2c0,0 1,0 1,0z"/>
       <path class="fil1" d="M552 291c0,0 0,1 0,1 0,0 0,-1 0,-1z"/>
       <path class="fil1" d="M568 264c0,0 1,-1 1,0 0,0 0,0 0,1 0,0 -1,0 0,0z"/>
      </g>
     </g>
     <path class="fil5" d="M615 243c-5,0 -8,3 -8,8 -2,0 -4,1 -5,3 -2,2 -2,4 -2,5 0,1 1,1 1,0 0,-1 1,-1 1,-2 1,-2 3,-4 5,-4 1,5 5,8 6,5 1,-2 0,-6 -4,-7 0,-4 3,-5 6,-6 1,5 6,6 8,4 1,-1 2,-5 -5,-6 1,-5 9,-7 13,-9 1,0 1,-1 0,-1 -6,-1 -15,4 -16,10zm-4 14l0 0c-1,-1 -1,-1 -2,-3 2,1 2,3 2,3zm10 -9l0 0c-1,1 -3,0 -4,-2 3,0 4,1 4,2z"/>
    </g>
    <g>
     <g>
      <path class="fil10" d="M574 287c0,0 0,0 0,-1 1,-5 -2,-10 -6,-13 -3,-3 -7,-5 -12,-5 -3,0 -7,1 -10,2 -2,1 -4,3 -5,5 -2,3 -2,8 -1,12 1,3 4,6 7,8 5,3 12,5 18,2 4,-2 7,-6 8,-10z"/>
      <path class="fil11" d="M573 285c0,0 0,0 0,-1 1,-5 -1,-9 -5,-13 -3,-3 -7,-5 -10,-5 -3,0 -6,1 -9,2 -2,1 -4,3 -5,5 -2,3 -2,8 -1,11 1,3 4,5 6,7 5,3 11,4 16,2 4,-2 7,-5 7,-9z"/>
      <path class="fil12" d="M573 285c0,0 0,0 0,-1 0,-3 0,-6 -2,-9 0,1 0,3 0,4 0,0 0,0 0,1 -1,4 -3,7 -7,9 -5,2 -11,1 -16,-2 -3,-2 -5,-4 -6,-7 0,0 0,0 0,0 0,2 0,4 1,5 1,3 4,5 6,7 5,3 11,4 16,2 4,-2 7,-5 7,-9z"/>
      <path class="fil13" d="M566 283c0,0 0,0 0,0 0,-2 -1,-5 -2,-7 -1,-1 -3,-2 -5,-2 -2,0 -3,0 -5,1 -1,1 -2,1 -3,3 -1,2 -1,4 -1,6 1,2 2,3 3,4 3,2 6,2 8,1 2,-1 3,-3 4,-5z"/>
      <path class="fil14" d="M565 283c0,0 0,0 0,0 0,-2 -1,-4 -2,-6 -1,-1 -3,-2 -5,-2 -1,0 -3,0 -4,1 -1,1 -2,1 -2,2 -1,1 -1,4 0,5 1,1 2,2 3,3 2,1 5,2 8,1 2,-1 3,-3 3,-4z"/>
      <g>
       <path class="fil15" d="M552 281c0,0 0,0 0,0 0,0 0,0 0,0 0,0 0,0 0,0 0,0 0,0 0,0 0,0 0,0 0,0 0,0 0,0 0,0 0,0 0,0 0,0 0,0 0,0 0,0 0,0 0,0 0,0 0,0 0,0 0,0 0,0 0,0 0,0 0,0 0,0 0,0 0,0 0,0 0,0 0,0 0,0 0,0 0,0 0,0 0,0 0,0 0,0 0,0 0,0 0,0 0,0 0,0 0,0 0,0z"/>
       <path class="fil15" d="M564 280c0,0 -1,0 -1,0 0,0 -1,0 0,1 0,0 0,1 1,0 0,0 1,0 1,0 1,0 1,-1 0,-1z"/>
       <path class="fil15" d="M556 282c0,0 -1,0 -1,0 0,0 -1,0 -1,0 -1,0 0,1 0,1 0,0 1,0 1,0 0,0 1,0 1,0 0,0 0,-1 0,-1z"/>
       <path class="fil15" d="M553 283c0,0 0,0 -1,0 0,0 0,0 0,0 0,0 0,0 0,0 0,0 0,0 0,0 0,0 0,0 0,0 0,0 0,0 0,0 0,0 0,0 0,0 0,0 0,0 0,0 0,0 0,0 0,0 0,0 0,0 0,0z"/>
       <path class="fil15" d="M556 283c0,0 -2,1 -1,1 0,0 0,0 0,0 0,0 0,0 0,0 0,0 0,0 1,-1 0,0 0,-1 0,-1z"/>
       <path class="fil15" d="M555 284c0,0 -1,1 -1,1 0,0 0,0 1,0 0,0 0,0 0,0 0,0 0,0 0,0 0,0 0,-1 0,-1z"/>
       <path class="fil15" d="M558 283c-1,0 -1,1 -1,1 0,1 -1,1 -1,2 0,0 1,1 1,0 0,0 1,-1 1,-2 0,0 0,-1 1,-1 0,0 0,-1 0,-1z"/>
       <path class="fil15" d="M560 285c0,-1 0,-1 0,-2 0,0 0,0 0,0 0,0 0,1 0,1 0,1 0,2 0,2 0,0 0,0 0,0 0,0 0,-1 0,-2z"/>
       <path class="fil15" d="M562 286c0,0 0,-1 0,-1 0,-1 -1,-1 -1,-1 0,0 0,0 0,0 0,1 0,1 1,2 0,0 0,1 1,1 0,0 0,0 0,0 0,0 0,0 0,-1z"/>
       <path class="fil15" d="M563 284c0,0 0,-1 0,-1 0,0 0,0 -1,0 0,0 -1,0 0,1 0,0 0,1 1,1 0,0 1,0 1,0z"/>
       <path class="fil15" d="M564 285c0,0 0,0 0,0 0,0 0,0 0,0 0,0 0,0 0,0 0,0 0,1 0,1 0,0 0,1 1,1 0,0 0,0 0,0 0,0 0,-1 0,-1z"/>
       <path class="fil15" d="M566 284c0,-1 -1,-1 -2,-1 -1,0 -1,-1 -2,-1 0,0 0,0 0,0 0,1 1,1 2,1 1,0 1,1 2,0 0,0 0,0 0,0z"/>
       <path class="fil15" d="M556 280c0,0 -1,0 -1,0 -1,0 -1,0 -2,0 0,0 0,1 0,1 1,0 1,0 2,0 0,0 1,0 1,0 0,0 0,0 0,-1z"/>
       <path class="fil15" d="M557 280c0,0 -1,-1 -1,-1 0,0 -1,-1 -1,-1 0,0 -1,0 0,0 0,1 1,1 1,1 1,0 1,0 2,0 0,0 0,0 0,0z"/>
       <path class="fil15" d="M558 279c0,0 0,-1 -1,-1 0,0 -1,0 -1,0 0,0 0,0 0,0 0,0 0,1 0,1 0,0 1,0 1,0 0,0 0,0 0,0z"/>
       <path class="fil15" d="M559 278c0,-1 0,-1 0,-2 0,0 -1,0 -1,0 0,1 0,1 0,2 0,0 0,1 0,1 0,0 0,0 0,0 0,0 0,-1 0,-1z"/>
       <path class="fil15" d="M560 278c0,0 0,0 0,0 0,0 -1,0 -1,1 0,0 0,1 0,1 0,0 0,1 1,0 0,0 0,-1 1,-1 0,0 0,0 0,-1z"/>
       <path class="fil15" d="M561 279c0,0 -1,0 -1,0 0,0 0,0 0,0 0,0 0,0 0,0 0,0 0,0 0,0 0,0 0,0 0,0 0,0 0,0 0,0 0,0 1,0 0,-1z"/>
       <path class="fil15" d="M563 277c0,0 0,0 0,0 -1,0 -1,0 -2,1 0,0 0,1 0,0 0,0 1,0 1,-1z"/>
       <path class="fil15" d="M561 277c-1,0 -1,1 0,1 1,0 1,-1 0,-1z"/>
       <path class="fil15" d="M558 275c0,0 -1,0 0,1 0,0 1,0 0,-1z"/>
       <path class="fil15" d="M556 277c0,0 -1,-1 -1,-1 0,0 -1,0 -1,0 0,0 0,1 0,1 0,0 1,1 1,1 0,0 1,0 1,0 0,0 0,-1 0,-1z"/>
       <path class="fil15" d="M554 277c0,0 0,0 -1,0 0,0 -1,0 -1,0 0,0 0,1 0,1 0,0 0,0 0,0 0,0 0,0 0,0 0,0 0,0 0,0 0,0 0,0 0,0 0,0 1,0 1,0 0,0 0,-1 0,-1z"/>
      </g>
      <path class="fil16" d="M562 282c0,0 0,0 0,0 0,-1 0,-2 -1,-3 -1,-1 -1,-1 -2,-1 -1,0 -1,0 -2,1 0,0 -1,1 -1,1 0,1 -1,2 0,2 0,1 1,1 1,2 1,1 2,1 4,0 1,0 1,-1 2,-2z"/>
      <path class="fil17" d="M562 281c0,0 0,0 0,0 0,0 0,-1 0,-1 0,0 -1,0 -1,0 0,0 0,0 -1,0 0,0 0,0 0,0 0,0 0,1 0,1 0,0 0,0 0,1 0,0 1,0 1,0 0,0 1,0 1,-1z"/>
      <path class="fil17" d="M568 279c0,0 0,0 0,0 0,-1 0,-2 -1,-2 0,0 -1,-1 -2,-1 -1,0 -1,0 -2,0 0,0 -1,0 -1,1 0,1 0,1 0,2 0,1 1,1 1,1 1,1 2,1 3,0 1,0 1,-1 1,-2z"/>
      <path class="fil17" d="M564 271c0,-1 -1,-1 -2,-1 -1,0 -2,0 -3,0 -2,0 -3,0 -5,1 -2,0 -3,1 -4,2 -1,1 -2,2 -2,3 0,0 0,0 0,0 0,-1 1,-1 1,-1 1,0 1,-1 2,-1 1,-1 3,-1 4,-2 1,0 3,-1 4,0 1,0 3,1 4,1 1,0 1,0 1,-1z"/>
     </g>
     <g>
      <path class="fil10" d="M627 305c0,0 0,0 0,0 0,-3 -1,-7 -4,-9 -2,-2 -5,-4 -8,-4 -2,0 -5,1 -7,2 -2,1 -3,2 -4,4 -1,2 -2,6 -1,8 1,2 3,4 5,5 4,2 8,3 13,2 3,-1 5,-4 6,-7z"/>
      <path class="fil11" d="M626 304c0,0 0,0 0,0 0,-3 -1,-7 -3,-9 -2,-2 -5,-3 -7,-3 -2,0 -4,1 -6,2 -1,1 -3,2 -3,3 -1,2 -2,6 -1,8 1,2 3,4 4,5 3,2 8,3 11,1 3,-1 5,-4 5,-7z"/>
      <path class="fil12" d="M626 304c0,0 0,0 0,0 0,-2 0,-4 -1,-6 0,1 0,2 0,3 0,0 0,0 0,0 0,3 -2,5 -5,6 -4,2 -8,1 -11,-1 -2,-1 -3,-3 -4,-5 0,0 0,0 0,0 0,1 0,3 0,4 1,2 3,4 4,5 3,2 8,3 11,1 3,-1 5,-4 5,-7z"/>
      <path class="fil13" d="M621 302c0,0 0,0 0,0 0,-2 -1,-3 -2,-5 -1,-1 -2,-2 -4,-2 -1,0 -2,0 -3,1 -1,0 -1,1 -2,2 -1,1 -1,3 0,4 0,1 1,2 2,3 2,1 4,2 6,1 1,-1 2,-2 3,-3z"/>
      <path class="fil14" d="M621 302c0,0 0,0 0,0 0,-2 0,-3 -2,-4 -1,-1 -2,-2 -3,-2 -1,0 -2,0 -3,1 -1,0 -1,1 -2,2 -1,1 -1,3 0,4 0,1 1,2 2,2 2,1 4,1 5,1 1,-1 2,-2 2,-3z"/>
      <g>
       <path class="fil15" d="M612 301c0,0 0,0 0,0 0,0 0,0 0,0 0,0 0,0 0,0 0,0 0,0 0,0 0,0 0,0 0,0 0,0 0,0 0,0 0,0 0,0 0,0 0,0 0,0 0,0 0,0 0,0 0,0 0,0 0,0 0,0 0,0 0,0 0,0 0,0 0,0 0,0 0,0 0,0 0,0 0,0 0,0 0,0 0,0 0,0 0,0 0,0 0,0 0,0 0,0 0,0 0,0 0,0 0,0 0,0z"/>
       <path class="fil15" d="M620 300c0,0 -1,0 -1,0 0,0 0,0 0,0 0,0 0,0 0,0 0,0 1,0 1,0 0,0 0,-1 0,-1z"/>
       <path class="fil15" d="M614 301c0,0 0,0 -1,0 0,0 0,0 -1,0 0,0 0,1 0,1 0,0 0,0 1,0 0,0 0,0 1,0 0,0 0,-1 0,-1z"/>
       <path class="fil15" d="M612 303c0,0 0,0 0,0 0,0 0,0 0,0 0,0 0,0 0,0 0,0 0,0 0,0 0,0 0,0 0,0 0,0 0,0 0,0 0,0 0,0 0,0 0,0 0,0 0,0 0,0 0,0 0,0 0,0 0,0 0,0z"/>
       <path class="fil15" d="M614 302c0,0 -1,1 -1,1 0,0 0,0 0,0 0,0 0,0 0,0 0,0 0,0 0,0 0,0 0,-1 0,0z"/>
       <path class="fil15" d="M613 303c0,0 -1,0 -1,1 0,0 0,0 0,0 0,0 0,0 0,0 0,0 0,0 0,0 0,0 0,-1 0,0z"/>
       <path class="fil15" d="M615 303c0,0 -1,1 -1,1 0,0 -1,1 -1,1 0,0 0,0 1,0 0,0 0,-1 1,-1 0,0 0,-1 1,-1 0,0 0,-1 0,0z"/>
       <path class="fil15" d="M617 304c0,0 0,-1 0,-1 0,0 0,0 0,0 0,0 0,1 0,1 0,0 0,1 0,1 0,0 0,0 0,0 0,0 0,-1 0,-1z"/>
       <path class="fil15" d="M618 304c0,0 0,0 0,-1 0,0 0,-1 -1,-1 0,0 0,0 0,0 0,0 0,1 0,1 0,0 0,1 1,1 0,0 0,0 0,0 0,0 0,0 0,-1z"/>
       <path class="fil15" d="M619 303c0,0 0,0 0,-1 0,0 0,0 -1,0 0,0 0,0 0,0 0,0 0,1 1,1 0,0 0,0 0,0z"/>
       <path class="fil15" d="M620 304c0,0 0,0 0,0 0,0 0,0 0,0 0,0 0,0 0,0 0,0 0,0 0,1 0,0 0,0 0,1 0,0 0,0 0,0 0,0 0,0 0,-1z"/>
       <path class="fil15" d="M621 303c0,0 -1,-1 -1,-1 0,0 -1,0 -1,-1 0,0 0,0 0,0 0,0 1,1 1,1 0,0 1,1 1,0 0,0 0,0 0,0z"/>
       <path class="fil15" d="M614 301c0,0 -1,0 -1,0 0,0 -1,0 -1,0 0,0 0,1 0,1 0,0 1,0 1,0 0,0 1,0 1,0 0,0 0,0 0,0z"/>
       <path class="fil15" d="M615 300c0,0 0,0 -1,-1 0,0 -1,0 -1,-1 0,0 0,0 0,0 0,0 0,1 1,1 0,0 1,0 1,0 0,0 0,0 0,0z"/>
       <path class="fil15" d="M615 300c0,0 0,0 0,0 0,0 0,0 -1,0 0,0 0,0 0,0 0,0 0,0 0,1 0,0 0,0 1,0 0,0 0,0 0,0z"/>
       <path class="fil15" d="M616 299c0,0 0,-1 0,-1 0,0 0,0 0,0 0,0 0,1 0,1 0,0 0,1 0,1 0,0 0,0 0,0 0,0 0,-1 0,-1z"/>
       <path class="fil15" d="M617 299c0,0 0,0 0,0 0,0 0,0 -1,0 0,0 0,0 0,1 0,0 0,0 0,0 0,0 0,0 0,-1 0,0 0,0 0,-1z"/>
       <path class="fil15" d="M618 299c0,0 0,0 -1,0 0,0 0,0 0,0 0,0 0,0 0,0 0,0 0,0 0,0 0,0 0,0 0,0 0,0 0,0 0,0 0,0 0,0 0,-1z"/>
       <path class="fil15" d="M619 298c0,0 0,0 0,0 0,0 -1,0 -1,0 0,0 0,0 0,0 0,0 1,0 1,-1z"/>
       <path class="fil15" d="M618 298c0,0 -1,1 0,1 0,0 1,-1 0,-1z"/>
       <path class="fil15" d="M615 297c0,0 0,0 0,0 0,0 0,0 0,0z"/>
       <path class="fil15" d="M614 298c0,0 0,0 -1,-1 0,0 0,0 -1,0 0,0 0,0 0,1 0,0 0,0 1,1 0,0 0,0 1,0 0,0 0,0 0,-1z"/>
       <path class="fil15" d="M612 298c0,0 0,0 0,0 0,0 0,0 -1,0 0,0 0,0 0,1 0,0 0,0 0,0 0,0 0,0 0,0 0,0 0,0 0,0 0,0 0,0 0,0 0,0 0,0 1,0 0,0 0,0 0,-1z"/>
      </g>
      <path class="fil16" d="M618 302c0,0 0,0 0,0 0,-1 0,-1 -1,-2 0,0 -1,-1 -2,-1 0,0 -1,0 -1,0 0,0 -1,0 -1,1 0,0 0,1 0,2 0,0 1,1 1,1 1,0 2,1 2,0 1,0 1,-1 1,-1z"/>
      <path class="fil17" d="M618 301c0,0 0,0 0,0 0,0 0,-1 0,-1 0,0 0,0 -1,0 0,0 0,0 0,0 0,0 0,0 0,0 0,0 0,0 0,1 0,0 0,0 0,0 0,0 1,0 1,0 0,0 0,0 0,-1z"/>
      <path class="fil17" d="M623 300c0,0 0,0 0,0 0,-1 0,-1 -1,-2 0,0 -1,-1 -1,-1 0,0 -1,0 -1,0 0,0 0,0 -1,1 0,0 0,1 0,1 0,0 0,1 1,1 1,0 1,1 2,0 0,0 1,-1 1,-1z"/>
      <path class="fil17" d="M619 294c0,0 -1,-1 -1,-1 -1,0 -1,0 -2,0 -1,0 -2,0 -3,0 -1,0 -2,1 -3,2 -1,1 -2,1 -2,2 0,0 0,0 0,0 0,0 1,-1 1,-1 0,0 1,-1 1,-1 1,-1 2,-1 3,-1 1,0 2,0 3,0 1,0 2,0 3,1 0,0 1,0 0,-1z"/>
     </g>
    </g>
    <g>
     <path class="fil18" d="M611 321c-3,2 -9,2 -9,2 0,0 -2,5 -2,6 -1,0 -4,-1 -4,-1 1,-2 2,-6 2,-6 -1,0 -11,-2 -11,-2l-2 5 -4 0 3 -5c0,0 0,0 0,-1 -2,0 -4,0 -6,-1 0,0 0,0 0,0 -1,1 -1,2 -1,3l-2 -1c0,0 0,-2 0,-3 0,0 0,0 0,-1 -5,-1 -9,-3 -14,-6 -2,-1 -3,-2 -5,-4 -1,-1 -2,-3 -3,-4 -1,-2 -1,-4 -1,-6 0,0 -1,9 -1,14 1,8 9,14 9,14 1,0 2,-5 2,-7 1,1 4,2 5,3 0,1 -4,5 -4,5 0,0 4,3 4,3 1,-1 1,-1 1,-2 1,0 2,0 3,1 0,1 -1,1 -1,2 0,1 0,1 1,2 1,1 1,1 2,1 1,1 3,1 4,2 1,0 3,1 4,1 1,0 2,0 3,0 1,0 1,-4 1,-4 0,0 4,0 4,0 0,0 0,4 0,4 7,1 15,-3 19,-9 1,-2 2,-6 2,-6z"/>
     <g>
      <path class="fil10" d="M587 321l0 0c0,0 0,0 0,0 0,0 0,0 0,0 -1,0 -1,0 -1,0l-2 5c0,0 1,0 1,0l1 -2c0,-1 1,-2 1,-2z"/>
      <path class="fil10" d="M603 324c0,0 0,0 0,-1 -1,0 -1,0 -1,0 0,0 -2,5 -2,6 0,0 1,0 1,0 1,-2 2,-6 2,-6 0,0 0,0 0,0z"/>
      <path class="fil10" d="M577 319c0,0 -1,0 -1,0 0,0 0,0 0,0 0,1 -1,2 -1,3l1 0c0,-1 1,-1 1,-2 0,0 0,-1 1,-1z"/>
      <path class="fil10" d="M591 332c0,0 -1,0 -1,0 0,1 0,4 0,4 0,0 1,0 1,0 0,-1 0,-4 0,-4z"/>
      <path class="fil10" d="M574 333c-1,0 -2,-1 -2,-1 -1,0 -1,-1 -1,-2 0,-1 1,-1 1,-2 0,0 -1,0 -1,0 0,1 -1,1 -1,2 0,1 0,1 1,2 1,1 1,1 2,1 1,1 2,1 3,1 -1,0 -1,-1 -2,-1z"/>
      <path class="fil10" d="M564 327c0,0 3,-5 4,-5 0,0 -1,0 -1,0 0,0 0,0 0,0 0,0 0,0 0,0 0,1 -4,5 -4,5 0,0 4,3 4,3 0,0 0,0 0,0 -1,-1 -3,-2 -3,-2z"/>
      <path class="fil10" d="M551 311c0,-3 0,-7 0,-10 0,-1 -1,-3 -1,-4 0,0 -1,9 -1,14 1,8 9,14 9,14 0,0 0,0 0,0 -2,-2 -7,-7 -8,-13z"/>
     </g>
     <g>
      <path class="fil5" d="M605 328c0,0 0,0 -1,0 0,0 0,0 0,1 0,0 0,0 0,0 0,0 0,0 0,0 0,0 0,0 0,0 0,0 0,0 0,0 0,0 0,0 0,0 0,0 0,0 0,0 0,0 0,0 0,0 0,0 0,0 0,0 0,0 0,0 0,-1 0,0 0,0 0,-1 0,0 0,0 0,-1z"/>
      <path class="fil5" d="M608 324c0,0 0,0 0,0 0,0 0,0 -1,0 0,0 -1,1 -1,1 0,0 0,0 0,0 0,0 0,0 0,0 0,0 0,0 0,0 0,0 0,0 0,0 0,0 0,0 0,0 0,0 0,0 0,0 0,0 0,0 0,0z"/>
      <path class="fil5" d="M554 312c0,0 0,0 0,0 0,0 0,0 0,0 0,0 0,0 0,0 0,0 0,0 0,0 0,0 0,0 0,0 0,0 0,0 0,-1 0,0 0,0 -1,0 0,1 -1,1 -1,2 0,0 0,0 0,0 0,0 0,0 0,0 0,0 0,-1 0,-1z"/>
      <path class="fil5" d="M554 314c0,0 0,0 0,0 0,0 0,0 0,0 0,1 0,2 0,3 0,0 0,0 0,0 0,0 0,0 0,0 0,-1 0,-2 0,-3z"/>
      <path class="fil5" d="M556 312c0,0 0,0 0,0 0,0 0,1 0,1 0,0 0,0 0,0 0,0 0,0 0,0 0,0 0,0 0,0 0,0 0,0 0,0 0,0 0,0 0,0 0,0 0,0 0,0 0,-1 0,-1 0,-2 0,0 0,0 0,0z"/>
      <path class="fil5" d="M556 318c0,0 0,0 0,0 0,0 0,0 0,0 0,1 0,2 0,3 0,0 0,0 0,0 0,0 0,0 0,0 0,-1 0,-2 0,-2z"/>
      <path class="fil5" d="M553 310c0,0 0,0 0,0 0,0 0,0 0,0 0,0 0,0 0,0 0,0 0,0 0,0 0,0 0,0 0,0 0,0 0,0 0,0 0,0 0,1 0,2 0,0 0,0 0,0 0,0 0,0 0,0 0,0 0,0 0,0 0,0 0,0 0,0 0,0 0,0 0,-1z"/>
      <path class="fil5" d="M558 318c0,0 0,0 0,0 0,-1 0,-2 1,-3 0,0 -1,-1 -1,0 0,1 -1,2 -1,3 0,0 0,0 0,0z"/>
      <path class="fil5" d="M558 321c0,0 0,0 0,0 0,0 0,0 0,0 0,0 0,0 0,0 0,0 0,0 0,0 0,0 0,0 0,0 0,0 0,1 0,1 0,0 0,0 0,0 0,0 0,0 0,0 0,0 0,0 0,0 0,0 0,0 0,0 0,0 0,0 0,0z"/>
      <path class="fil5" d="M561 315c0,0 0,0 0,0l0 1c0,0 0,0 0,0 0,0 0,0 0,0l0 -1c0,0 0,0 0,0z"/>
      <path class="fil5" d="M562 316c0,0 0,0 -1,0 0,0 -1,1 -1,1 0,0 0,0 0,0 0,0 0,0 0,0 0,0 0,0 0,0 0,0 0,0 0,0 0,0 0,0 0,0 0,0 0,0 0,0 0,0 0,0 0,0 0,0 0,0 0,0 0,0 0,0 0,0 0,0 0,0 0,-1 0,0 0,0 0,-1z"/>
      <path class="fil5" d="M566 318c0,0 0,0 0,0 0,0 0,0 0,0 0,0 0,0 0,0 0,0 0,0 0,0 0,0 0,0 0,0 0,0 0,1 0,1 0,0 0,0 0,0 0,0 0,0 0,0 0,0 0,0 0,0 0,0 0,0 0,0 0,0 0,0 0,0 0,0 0,0 0,0 0,0 0,0 0,0 0,0 0,-1 0,-1 0,0 0,0 0,0z"/>
      <path class="fil5" d="M568 324c0,0 0,0 0,0 0,0 0,1 0,1 0,0 0,1 0,1 0,0 0,0 0,1 0,0 0,0 1,0 0,-1 1,-1 1,-2 0,0 0,0 0,0z"/>
      <path class="fil5" d="M568 322c0,0 0,0 0,0 0,-1 1,-2 1,-2 0,0 0,0 0,0 0,0 0,0 0,0 0,1 -1,2 -1,2 0,0 0,0 0,0z"/>
      <path class="fil5" d="M570 323c0,0 0,0 0,0 0,0 0,0 0,0 0,0 0,0 0,1 0,0 0,0 0,0 0,0 0,0 0,0 0,0 0,-1 0,-1 0,0 0,0 0,0z"/>
      <path class="fil5" d="M573 326c0,0 0,0 0,0 0,0 0,0 0,0 0,0 0,0 0,0 0,0 0,0 0,0 0,0 0,-1 0,-1 0,0 0,0 0,0 0,0 0,0 0,0 0,1 -1,1 -1,2 0,0 0,0 0,0 0,0 0,0 0,0 0,0 0,0 0,0z"/>
      <path class="fil5" d="M575 326c0,0 0,0 0,0 0,0 0,0 0,0 0,0 0,0 0,0 0,0 0,0 0,0 0,0 0,0 0,0 0,0 0,1 0,1 0,0 0,0 0,0 0,0 0,0 0,0 0,0 0,0 0,0 0,0 0,0 0,0 0,0 0,0 0,0 0,0 0,0 0,0 0,0 0,-1 0,-1 0,0 0,0 0,0z"/>
      <path class="fil5" d="M577 325c0,0 0,0 0,0 0,-1 1,-2 1,-2 0,0 0,-1 -1,0 -1,1 -1,2 -1,3 0,0 0,0 0,0z"/>
      <path class="fil5" d="M576 329c0,0 0,-1 0,-1 0,0 0,0 0,0 0,0 0,0 0,0 0,0 0,1 0,1 0,0 0,1 0,1 0,0 0,0 0,0 0,0 0,0 0,0 0,0 0,-1 0,-1z"/>
      <path class="fil5" d="M575 332c0,0 0,0 0,0 0,0 0,0 0,0 0,0 0,0 0,0 0,0 0,0 0,0 0,0 0,0 0,0 0,0 0,0 0,0 0,0 0,0 0,0 0,0 0,0 0,0 0,0 0,0 0,0 0,0 0,0 0,-1 0,0 0,0 -1,0 0,0 -1,1 -1,2 0,0 0,0 0,0 0,0 0,0 0,0 0,0 0,0 0,0z"/>
      <path class="fil5" d="M578 331c0,0 0,-1 0,-1 0,0 0,0 0,0 0,0 0,0 0,0 0,1 -1,2 -1,3 0,0 0,0 0,0 0,0 0,0 0,0 0,0 0,-1 0,-1z"/>
      <path class="fil5" d="M578 327c0,-1 1,-2 1,-2 0,0 0,0 0,0 0,0 0,0 0,0 0,1 -1,2 -1,3 0,0 0,0 0,0 0,0 0,0 0,0z"/>
      <path class="fil5" d="M580 322c0,0 0,0 1,0 0,0 0,-1 0,-1 0,0 0,0 0,0 0,0 0,0 0,0 0,0 0,0 0,0 0,0 0,0 0,0 0,0 0,0 0,-1 0,0 0,0 -1,0 0,0 -1,1 -1,2 0,0 0,0 0,1z"/>
      <path class="fil5" d="M580 327c0,0 -1,-1 -1,0 0,1 -1,2 -1,3 0,0 0,0 0,0 0,0 0,0 0,0 0,-1 0,-2 1,-3z"/>
      <path class="fil5" d="M579 331c0,0 0,0 0,0 0,0 0,1 0,1 0,0 0,0 0,0 0,0 0,0 0,0 0,0 0,0 0,0 0,0 0,0 0,0 0,0 0,0 0,0 0,0 0,0 0,0 0,0 0,0 0,0 0,-1 0,-1 0,-2 0,0 0,0 0,0z"/>
      <path class="fil5" d="M581 329c0,1 -1,2 -1,3 0,0 1,1 1,0 0,-1 1,-2 1,-3 0,0 -1,-1 -1,0z"/>
      <path class="fil5" d="M584 327c0,0 0,0 -1,0 0,0 0,0 0,1 0,0 0,0 0,0 0,0 0,0 0,0 0,0 0,0 0,0 0,0 0,0 1,0 0,0 1,-1 1,-1 0,0 0,0 0,-1z"/>
      <path class="fil5" d="M582 333c0,0 0,0 0,0 0,0 0,0 0,0 0,0 0,0 0,0 0,0 0,0 0,0 0,0 0,0 0,0 0,0 0,0 0,0 0,0 0,0 0,0 0,0 0,-1 0,-1 0,0 0,0 0,0 0,0 0,0 0,0 0,1 -1,2 0,3 0,0 0,0 0,0 0,0 0,0 0,0 0,0 0,0 0,0z"/>
      <path class="fil5" d="M587 328c0,0 0,0 -1,0 0,1 -1,1 -1,2 0,0 0,0 0,0 0,0 0,0 0,0 0,0 0,0 0,0 0,0 0,0 0,0 0,0 0,0 0,0 0,0 0,0 0,0 0,0 0,0 0,0 0,0 0,0 0,0 0,0 0,0 0,0 0,0 0,0 0,0 0,0 0,0 0,0 0,0 0,0 0,-1z"/>
      <path class="fil5" d="M589 324c0,0 0,0 -1,0 -1,1 -1,1 -1,2 0,0 0,0 0,0 0,0 0,0 0,0 0,0 0,0 0,-1 0,0 0,0 0,0 0,0 0,0 0,0 0,0 0,0 0,0 0,0 0,-1 1,-1 0,0 0,0 0,-1z"/>
      <path class="fil5" d="M590 328c0,0 0,0 -1,0 0,1 -1,1 -1,2 0,0 0,0 0,1 0,0 0,0 1,0 0,-1 1,-1 1,-2 0,0 0,0 0,-1z"/>
      <path class="fil5" d="M592 324c0,0 0,0 -1,0 0,0 -1,1 -1,2 0,0 0,0 0,1 0,0 0,0 1,0 0,-1 1,-1 1,-2 0,0 0,0 0,-1z"/>
      <path class="fil5" d="M594 324c0,0 0,0 -1,0 0,0 0,1 0,1 0,0 0,0 0,0 0,0 0,0 0,0 0,0 0,0 0,0 0,0 0,0 0,0 0,0 0,0 0,0 0,0 0,0 0,1 0,0 0,0 1,0 0,0 0,-1 1,-1 0,0 0,0 0,0 0,0 0,0 0,0 0,0 0,0 0,0 0,0 0,0 0,0 0,0 0,0 0,-1z"/>
      <path class="fil5" d="M592 328c0,0 0,0 -1,0 0,0 -1,1 -1,1 0,0 0,0 0,0 0,0 0,0 0,0 0,0 0,0 0,0 0,0 0,0 0,0 0,0 0,0 0,0 0,0 0,0 0,0 0,0 0,0 0,0 0,0 0,0 0,0 0,0 0,0 0,0 0,0 0,0 0,0 0,0 0,0 0,0 0,0 0,0 0,0 0,0 0,0 0,0 0,0 0,0 0,0 0,0 0,0 0,-1z"/>
      <path class="fil5" d="M595 326c0,0 -1,-1 -1,0 -1,2 -2,3 -2,5 0,0 1,1 1,0 0,-2 1,-3 2,-4z"/>
      <path class="fil5" d="M594 331c0,0 0,0 -1,0 0,1 -1,1 -1,2 0,0 0,0 0,0 0,0 0,0 0,0 0,0 0,-1 0,-1 0,0 0,0 0,0 0,0 0,0 0,0 0,0 0,0 0,0 0,0 0,0 0,0 0,0 0,0 0,-1z"/>
      <path class="fil5" d="M596 331c0,0 0,0 0,0 0,0 0,0 0,0 0,0 0,0 0,0 0,0 0,0 0,0 0,0 0,0 0,0 0,0 0,0 0,0 0,0 0,0 0,0 0,0 0,0 0,0 0,0 0,0 0,0 0,0 0,0 0,0 0,0 0,0 0,0 0,0 0,0 0,0 0,0 0,0 0,0 0,0 0,0 0,0z"/>
      <path class="fil5" d="M595 334c0,0 0,0 0,0 0,0 0,0 0,0l0 1c0,0 0,0 0,0 0,0 0,0 0,0 0,0 0,0 0,0 0,0 0,0 0,0l0 -1c0,0 0,0 0,0 0,0 0,0 0,0z"/>
      <path class="fil5" d="M600 330c0,0 0,0 -1,0 -1,1 -1,2 -1,3 0,0 1,1 1,0 0,0 0,-1 0,-1 0,0 0,-1 1,-1 0,0 0,0 0,-1z"/>
      <path class="fil5" d="M603 331c0,0 0,0 -1,0 -1,1 -1,1 -2,2 0,0 0,0 0,1 0,0 0,0 1,0 0,-1 1,-1 2,-2 0,0 0,0 0,-1z"/>
      <path class="fil5" d="M604 328c0,0 0,0 0,0 0,-1 1,-1 1,-2 0,0 0,0 0,0 0,0 0,0 0,0 0,1 -1,1 -1,2 0,0 0,0 0,0z"/>
      <path class="fil5" d="M607 325c0,0 0,0 -1,0 0,1 -1,1 -1,2 0,0 0,0 0,1 0,0 0,0 1,0 0,-1 1,-1 1,-2 0,0 0,0 0,-1z"/>
     </g>
    </g>
   </g>
  </g>
  <g>
   <polygon class="fil19 str0" points="186,33 189,34 192,36 196,37 200,43 200,44 200,46 198,54 197,57 184,86 182,89 179,94 174,101 172,104 169,109 164,116 163,119 160,121 160,122 163,124 170,130 173,132 174,134 177,136 178,138 177,139 176,139 174,139 172,139 167,139 164,140 160,138 155,137 152,136 150,137 148,138 146,141 143,142 139,148 133,154 129,161 127,165 125,168 124,170 121,175 118,179 116,185 113,188 112,191 110,198 110,198 109,200 108,202 106,203 105,207 105,209 103,209 102,211 102,212 101,214 100,213 100,214 96,214 95,214 94,215 93,213 92,213 91,214 90,214 89,215 88,215 87,216 83,215 81,211 80,207 81,201 82,199 83,194 87,182 92,168 102,145 109,131 114,123 110,121 107,121 100,117 88,115 85,114 76,111 74,110 68,119 66,121 64,124 63,126 62,127 58,131 56,133 56,135 52,138 49,143 47,146 41,152 37,157 34,160 32,161 30,164 28,166 25,172 23,173 22,175 20,177 19,178 17,181 16,181 16,182 15,182 14,183 8,185 8,180 10,172 11,167 11,166 12,163 13,159 16,148 22,135 26,127 27,124 29,120 38,102 48,85 60,64 70,50 76,44 78,40 88,28 92,24 95,20 99,16 103,12 106,9 108,8 110,6 112,7 113,6 114,8 115,7 119,8 124,13 123,14 125,15 125,20 124,30 119,41 118,42 117,43 116,47 113,52 112,54 109,61 103,69 99,75 96,79 94,81 93,82 91,86 88,89 89,90 102,95 110,97 116,98 120,100 127,102 136,89 143,80 143,79 149,72 151,69 152,68 152,68 161,56 175,41 181,33 182,34 184,32 185,32 "/>
  </g>
  <g>
   <path id="1" class="fil19 str0" d="M288 167l-2 -1 -8 2 -13 6 -16 9 -10 8 -8 7 -6 9 -1 4 3 2 14 -9 16 -11 20 -15 11 -11zm-10 -14l8 -1 3 0 4 5 0 2 -3 6 6 -4 1 0 3 0 5 2 1 1 1 3 1 1 0 7 -2 3 0 4 -15 27 0 1 -4 5 -4 9 -1 4 -1 0 0 4 -2 3 0 3 -2 3 -1 3 1 1 0 7 1 3 0 2 2 3 3 1 2 1 0 1 -4 1 -1 1 -1 0 -3 2 -1 1 -1 0 -5 -1 -3 -2 -6 -7 -1 -5 -1 -5 0 -2 0 -6 -1 -9 3 -14 3 -10 -1 0 0 1 -7 6 -7 5 -3 4 -4 3 -2 2 -5 3 -9 4 -9 2 -4 -1 -8 -4 -6 -4 -2 -4 -1 -4 0 -6 2 -6 3 -8 6 -9 1 -1 6 -5 14 -10 20 -11 17 -7 10 -4z"/>
  </g>
  <g>
   <polygon id="12" class="fil19 str0" points="375,293 378,293 368,296 366,296 362,295 355,289 352,285 349,280 348,277 345,266 345,263 345,256 346,243 348,236 352,227 352,227 352,226 360,209 370,194 372,193 379,183 395,165 397,163 404,156 420,142 429,136 432,133 436,133 440,135 443,140 443,143 442,147 436,156 431,162 429,165 420,174 418,176 415,180 413,181 411,184 404,191 396,200 393,202 391,205 390,209 388,210 388,210 383,216 383,217 381,220 378,222 378,226 376,227 375,228 369,240 368,244 368,245 368,245 367,248 366,249 365,253 365,255 363,260 364,268 365,272 364,274 365,276 365,278 367,282 372,284 376,285 377,286 383,292 "/>
  </g>
  <g>
   <polygon id="123" class="fil19 str0" points="493,321 496,320 486,324 484,324 480,323 472,318 469,314 466,310 464,307 460,296 461,293 460,285 460,273 462,266 465,256 465,256 465,255 472,238 481,222 482,220 489,210 504,191 506,189 512,182 527,167 536,160 539,157 542,156 546,158 549,163 550,166 549,170 544,180 539,186 538,189 529,199 527,201 524,205 523,206 521,209 514,217 507,226 504,229 502,232 501,236 499,237 499,237 495,243 495,244 493,248 491,250 491,253 489,254 488,256 483,268 482,272 482,273 482,273 481,276 480,277 479,282 480,283 479,289 480,296 481,300 480,302 481,304 481,306 484,310 489,312 493,312 494,314 500,319 "/>
  </g>
  <g>
   <polygon id="1234" class="fil19 str0" points="801,223 805,219 806,219 804,223 803,224 803,225 802,225 802,228 803,228 801,232 799,235 796,238 796,239 791,248 790,252 786,260 785,263 785,264 783,268 783,269 782,272 779,278 777,281 775,289 772,293 771,296 771,298 769,302 768,303 768,305 766,309 766,310 763,317 759,324 755,332 752,337 749,341 747,343 743,345 740,347 738,348 731,347 725,343 721,337 718,328 716,315 718,281 717,281 715,284 709,300 708,304 705,313 704,317 700,330 694,345 689,347 686,347 681,343 678,339 675,333 674,323 674,312 674,295 677,272 682,251 686,246 688,245 692,245 695,250 697,255 695,272 695,276 695,283 694,290 693,293 693,302 704,277 711,268 713,266 715,265 719,264 724,263 729,264 732,267 734,270 736,274 738,282 738,286 736,302 736,303 735,316 736,324 736,326 737,326 756,294 774,262 781,252 784,247 785,245 787,242 789,239 790,237 793,233 796,230 796,228 798,227 801,224 "/>
  </g>
  <g>
   <path id="12345" class="fil19 str0" d="M842 353l-3 0 -1 0 -2 0 -2 -2 -3 -2 -7 -3 -6 -6 -3 -8 0 -3 0 -1 -1 -4 0 -1 -1 -1 1 -2 0 -3 3 -7 3 -7 4 -5 4 -4 4 -4 7 -7 9 -6c7,-5 14,-8 20,-10 9,-3 16,-5 20,-6l9 -1 9 1 3 3 1 4 -1 1 1 3 -1 6 -2 3 0 2 0 2 -4 4 0 2 -2 2 -3 3 -2 1 -4 4 -5 5 -4 3 0 2 -3 1 -1 0 -2 2 -3 1 -7 5 -3 1 -1 1 -12 4 -4 0 -1 2 0 1 1 2 5 4 9 3 10 0 1 1 16 1 13 0 11 -2 6 -1 2 0 0 3 -7 4 -6 3 0 1 -3 1 -3 0 -1 1 -6 2 -2 0 -1 1 -2 1 -2 0 0 0 -3 0 -1 1 -14 2 -3 0 0 0 -5 0 -1 0 -2 0 -3 0 -1 0 -3 0 -1 -1 -2 0 -3 -1 -2 -1 0 0zm47 -75l-2 1 -8 3 -10 5 -10 8 -5 5 -6 6 2 0 12 0 8 -2 7 -3 7 -5 6 -5 4 -8 -1 -4 -4 0z"/>
  </g>
  <g>
   <path id="123456" class="fil19 str0" d="M984 354l-3 0 -1 0 -2 0 -2 -2 -4 -2 -7 -3 -6 -5 -3 -8 0 -3 0 -1 -1 -4 0 -1 -1 -1 1 -2 0 -3 3 -7 3 -7 3 -5 4 -4 4 -4 7 -7 9 -7c7,-5 14,-8 20,-10 9,-3 16,-5 20,-6l9 -1 9 1 3 3 1 4 -1 1 1 3 -1 6 -2 3 0 2 0 2 -3 4 0 2 -2 2 -3 3 -2 1 -4 4 -5 5 -4 3 0 2 -3 2 -1 0 -2 2 -3 1 -7 5 -3 1 -1 1 -12 4 -4 0 -1 2 0 1 1 2 5 4 9 3 10 0 1 1 16 0 13 -1 11 -2 6 -1 2 0 0 3 -7 4 -6 3 0 1 -3 1 -3 0 -1 1 -6 2 -2 0 -1 1 -2 1 -2 0 0 0 -3 0 -1 1 -14 2 -3 0 0 0 -5 0 -1 0 -2 0 -3 0 -1 0 -4 0 -1 -1 -2 0 -3 -1 -2 -1 0 0zm46 -76l-2 1 -8 3 -10 5 -10 8 -5 5 -5 6 2 0 12 -1 8 -2 7 -3 7 -5 5 -6 4 -8 -1 -4 -4 0z"/>
  </g>
  <g>
   <path id="1234567" class="fil19 str0" d="M1173 254l3 3 2 3 3 5 1 7 1 8 0 4 -1 6 0 7 0 6 -1 4 0 4 0 5 0 3 0 3 0 4 -1 5 0 7 0 6 0 6 2 3 2 4 2 4 -2 3 -4 -1 -4 -1 -4 -1 -5 -2 -3 -3 -2 -5 -1 -5 -2 -9 0 -5 0 -4 -1 -11 1 -4 0 -5 0 -1 0 -1 1 -1 -1 -7 0 -5 0 -4 1 -5 0 -3 -2 -3 -3 -2 -5 0 -3 1 -3 4 -1 3 -2 4 0 7 -2 8 -1 6 -2 8 -2 7 -1 4 0 2 -2 6 0 2 -1 2 -3 8 -1 1 -2 3 -3 1 0 1 -3 0 -5 0 -2 -3 -1 -1 -2 -1 0 -3 -1 -3 -1 -4 0 -4 0 -6 1 -5 0 -5 2 -6 2 -8 2 -10 2 -9c0,-2 1,-3 2,-5 1,-2 1,-4 1,-5l0 -8 -1 -6c-1,-3 -1,-6 0,-7 1,-1 4,-2 9,-1l5 0 5 2 3 3 4 0 4 -3 3 -3 7 -3c2,-1 5,-1 9,0l5 2z"/>
  </g>
  <g>
   <polygon id="12345678" class="fil19 str0" points="1402,147 1408,152 1410,160 1406,168 1403,171 1398,174 1393,167 1387,171 1382,174 1378,178 1369,181 1371,183 1369,185 1366,187 1363,188 1361,190 1360,191 1358,193 1355,196 1354,197 1350,201 1346,206 1342,210 1341,212 1338,216 1336,219 1333,221 1330,225 1328,232 1327,238 1329,244 1340,247 1349,248 1359,250 1362,252 1366,254 1370,255 1373,256 1379,258 1385,259 1395,263 1400,265 1414,271 1417,273 1420,275 1424,278 1429,284 1428,292 1434,290 1435,295 1435,298 1436,301 1431,309 1422,316 1414,319 1406,323 1386,327 1383,328 1378,330 1371,333 1363,334 1348,336 1343,336 1340,337 1333,338 1322,339 1316,340 1306,340 1306,340 1305,341 1303,340 1303,340 1303,341 1303,342 1302,342 1301,342 1299,340 1297,340 1296,340 1294,340 1295,341 1293,341 1293,341 1291,341 1290,341 1289,341 1288,340 1287,341 1287,340 1287,340 1290,339 1295,337 1299,336 1302,335 1306,334 1311,331 1311,331 1323,328 1329,327 1337,326 1347,323 1354,321 1360,320 1362,320 1363,318 1367,317 1370,317 1371,316 1373,315 1375,315 1377,314 1379,314 1381,313 1383,310 1385,309 1387,308 1389,306 1389,303 1389,301 1388,300 1388,297 1387,296 1385,294 1384,293 1383,292 1380,291 1372,287 1368,286 1362,283 1358,282 1355,281 1349,279 1347,279 1344,277 1343,277 1338,277 1337,276 1330,275 1322,274 1316,274 1315,274 1310,273 1305,271 1300,268 1296,266 1290,262 1286,258 1285,254 1283,250 1281,240 1282,237 1283,234 1283,231 1285,226 1287,222 1289,218 1294,210 1297,206 1302,201 1307,196 1310,191 1320,182 1325,177 1330,171 1338,165 1340,164 1342,161 1349,154 1357,147 1360,143 1361,143 1363,140 1365,138 1367,136 1369,135 1372,134 1375,133 1380,133 1388,136 1392,137 1398,142 1400,144 "/>
  </g>
  <g>
   <path id="123456789" class="fil19 str0" d="M1534 185l-2 1 -6 6 -8 12 -9 16 -5 12 -3 11 0 11 1 4 3 0 7 -15 8 -18 9 -23 4 -15zm-16 -7l7 -5 3 -1 6 3 1 1 1 6 3 -7 1 0 3 -2 5 -1 2 1 2 2 1 1 3 6 0 4 3 4 2 31 0 1 0 6 2 10 1 4 -1 1 2 4 0 3 2 2 0 4 1 3 2 1 3 6 3 2 2 2 3 1 3 -1 2 0 0 1 -3 2 -1 2 -1 0 -2 3 0 1 -1 1 -5 2 -3 0 -9 -3 -4 -3 -4 -4 -1 -1 -3 -5 -5 -7 -5 -13 -3 -10 -1 0 0 1 -2 9 -3 8 -1 5 -2 5 -1 3 -3 5 -6 8 -7 7 -4 1 -9 1 -7 0 -4 -3 -3 -2 -3 -5 -2 -7 -2 -8 1 -11 1 -2 2 -8 7 -16 12 -20 10 -15 7 -9z"/>
  </g>
  <g>
   <polygon id="12345678910" class="fil19 str0" points="1676,244 1678,242 1672,250 1670,251 1666,253 1657,252 1652,251 1647,248 1644,246 1635,239 1634,236 1629,230 1624,219 1621,212 1619,203 1619,202 1619,201 1616,183 1616,164 1617,163 1617,150 1621,127 1621,124 1623,114 1629,94 1632,83 1634,80 1636,77 1641,76 1646,79 1648,81 1650,86 1650,97 1649,104 1649,108 1647,120 1646,123 1645,128 1645,130 1644,133 1642,143 1641,155 1640,159 1639,163 1641,166 1639,168 1640,169 1639,176 1639,176 1640,181 1639,183 1640,187 1639,188 1639,190 1641,204 1642,207 1643,208 1643,208 1644,212 1643,213 1645,217 1646,218 1648,224 1652,229 1655,233 1655,234 1658,235 1658,237 1663,239 1668,239 1671,237 1674,237 1681,239 "/>
  </g>
  <g>
   <path id="1234567891011" class="fil19 str0" d="M1764 200l-2 1 -1 0 -2 1 -2 -1 -4 -1 -7 0 -8 -3 -6 -6 -2 -3 0 -1 -3 -4 0 -1 -1 -1 0 -2 -1 -3 0 -8 0 -7 2 -6 3 -5 2 -5 4 -9 6 -9c5,-7 10,-12 15,-16 7,-6 13,-10 16,-13l8 -4 8 -2 3 1 3 3 -1 1 2 3 1 6 0 4 0 1 0 2 -2 5 0 2 -1 3 -2 4 -1 2 -2 5 -3 7 -3 5 0 2 -2 3 -1 0 -1 2 -2 2 -5 7 -3 2 0 1 -9 8 -4 2 0 3 1 1 2 2 6 2 10 0 10 -4 1 0 15 -5 12 -5 10 -6 5 -3 2 -1 1 3 -5 6 -4 5 0 1 -2 2 -3 1 0 1 -5 5 -1 1 0 1 -2 1 -2 1 0 0 -2 1 -1 2 -13 7 -2 1 0 0 -4 2 -1 1 -2 1 -3 1 -1 0 -3 1 -1 -1 -1 1 -3 0 -2 0 0 0zm16 -87l-1 2 -6 6 -8 8 -6 11 -3 6 -3 8 2 -1 11 -5 7 -5 6 -5 5 -7 3 -7 1 -9 -2 -3 -4 1z"/>
  </g>
  <polygon id="123456789101112" class="fil1" points="186,33 189,34 192,36 196,37 200,43 200,44 200,46 198,54 197,57 184,86 182,89 179,94 174,101 172,104 169,109 164,116 163,119 160,121 160,122 163,124 170,130 173,132 174,134 177,136 178,138 177,139 176,139 174,139 172,139 167,139 164,140 160,138 155,137 152,136 150,137 148,138 146,141 143,142 139,148 133,154 129,161 127,165 125,168 124,170 121,175 118,179 116,185 113,188 112,191 110,198 110,198 109,200 108,202 106,203 105,207 105,209 103,209 102,211 102,212 101,214 100,213 100,214 96,214 95,214 94,215 93,213 92,213 91,214 90,214 89,215 88,215 87,216 83,215 81,211 80,207 81,201 82,199 83,194 87,182 92,168 102,145 109,131 114,123 110,121 107,121 100,117 88,115 85,114 76,111 74,110 68,119 66,121 64,124 63,126 62,127 58,131 56,133 56,135 52,138 49,143 47,146 41,152 37,157 34,160 32,161 30,164 28,166 25,172 23,173 22,175 20,177 19,178 17,181 16,181 16,182 15,182 14,183 8,185 8,180 10,172 11,167 11,166 12,163 13,159 16,148 22,135 26,127 27,124 29,120 38,102 48,85 60,64 70,50 76,44 78,40 88,28 92,24 95,20 99,16 103,12 106,9 108,8 110,6 112,7 113,6 114,8 115,7 119,8 124,13 123,14 125,15 125,20 124,30 119,41 118,42 117,43 116,47 113,52 112,54 109,61 103,69 99,75 96,79 94,81 93,82 91,86 88,89 89,90 102,95 110,97 116,98 120,100 127,102 136,89 143,80 143,79 149,72 151,69 152,68 152,68 161,56 175,41 181,33 182,34 184,32 185,32 "/>
  <path id="12345678910111213" class="fil1" d="M288 167l-2 -1 -8 2 -13 6 -16 9 -10 8 -8 7 -6 9 -1 4 3 2 14 -9 16 -11 20 -15 11 -11zm-10 -14l8 -1 3 0 4 5 0 2 -3 6 6 -4 1 0 3 0 5 2 1 1 1 3 1 1 0 7 -2 3 0 4 -15 27 0 1 -4 5 -4 9 -1 4 -1 0 0 4 -2 3 0 3 -2 3 -1 3 1 1 0 7 1 3 0 2 2 3 3 1 2 1 0 1 -4 1 -1 1 -1 0 -3 2 -1 1 -1 0 -5 -1 -3 -2 -6 -7 -1 -5 -1 -5 0 -2 0 -6 -1 -9 3 -14 3 -10 -1 0 0 1 -7 6 -7 5 -3 4 -4 3 -2 2 -5 3 -9 4 -9 2 -4 -1 -8 -4 -6 -4 -2 -4 -1 -4 0 -6 2 -6 3 -8 6 -9 1 -1 6 -5 14 -10 20 -11 17 -7 10 -4z"/>
  <polygon id="1234567891011121314" class="fil1" points="375,293 378,293 368,296 366,296 362,295 355,289 352,285 349,280 348,277 345,266 345,263 345,256 346,243 348,236 352,227 352,227 352,226 360,209 370,194 372,193 379,183 395,165 397,163 404,156 420,142 429,136 432,133 436,133 440,135 443,140 443,143 442,147 436,156 431,162 429,165 420,174 418,176 415,180 413,181 411,184 404,191 396,200 393,202 391,205 390,209 388,210 388,210 383,216 383,217 381,220 378,222 378,226 376,227 375,228 369,240 368,244 368,245 368,245 367,248 366,249 365,253 365,255 363,260 364,268 365,272 364,274 365,276 365,278 367,282 372,284 376,285 377,286 383,292 "/>
  <polygon id="123456789101112131415" class="fil1" points="493,321 496,320 486,324 484,324 480,323 472,318 469,314 466,310 464,307 460,296 461,293 460,285 460,273 462,266 465,256 465,256 465,255 472,238 481,222 482,220 489,210 504,191 506,189 512,182 527,167 536,160 539,157 542,156 546,158 549,163 550,166 549,170 544,180 539,186 538,189 529,199 527,201 524,205 523,206 521,209 514,217 507,226 504,229 502,232 501,236 499,237 499,237 495,243 495,244 493,248 491,250 491,253 489,254 488,256 483,268 482,272 482,273 482,273 481,276 480,277 479,282 480,283 479,289 480,296 481,300 480,302 481,304 481,306 484,310 489,312 493,312 494,314 500,319 "/>
  <polygon id="12345678910111213141516" class="fil1" points="801,223 805,219 806,219 804,223 803,224 803,225 802,225 802,228 803,228 801,232 799,235 796,238 796,239 791,248 790,252 786,260 785,263 785,264 783,268 783,269 782,272 779,278 777,281 775,289 772,293 771,296 771,298 769,302 768,303 768,305 766,309 766,310 763,317 759,324 755,332 752,337 749,341 747,343 743,345 740,347 738,348 731,347 725,343 721,337 718,328 716,315 718,281 717,281 715,284 709,300 708,304 705,313 704,317 700,330 694,345 689,347 686,347 681,343 678,339 675,333 674,323 674,312 674,295 677,272 682,251 686,246 688,245 692,245 695,250 697,255 695,272 695,276 695,283 694,290 693,293 693,302 704,277 711,268 713,266 715,265 719,264 724,263 729,264 732,267 734,270 736,274 738,282 738,286 736,302 736,303 735,316 736,324 736,326 737,326 756,294 774,262 781,252 784,247 785,245 787,242 789,239 790,237 793,233 796,230 796,228 798,227 801,224 "/>
  <path id="1234567891011121314151617" class="fil1" d="M842 353l-3 0 -1 0 -2 0 -2 -2 -3 -2 -7 -3 -6 -6 -3 -8 0 -3 0 -1 -1 -4 0 -1 -1 -1 1 -2 0 -3 3 -7 3 -7 4 -5 4 -4 4 -4 7 -7 9 -6c7,-5 14,-8 20,-10 9,-3 16,-5 20,-6l9 -1 9 1 3 3 1 4 -1 1 1 3 -1 6 -2 3 0 2 0 2 -4 4 0 2 -2 2 -3 3 -2 1 -4 4 -5 5 -4 3 0 2 -3 1 -1 0 -2 2 -3 1 -7 5 -3 1 -1 1 -12 4 -4 0 -1 2 0 1 1 2 5 4 9 3 10 0 1 1 16 1 13 0 11 -2 6 -1 2 0 0 3 -7 4 -6 3 0 1 -3 1 -3 0 -1 1 -6 2 -2 0 -1 1 -2 1 -2 0 0 0 -3 0 -1 1 -14 2 -3 0 0 0 -5 0 -1 0 -2 0 -3 0 -1 0 -3 0 -1 -1 -2 0 -3 -1 -2 -1 0 0zm47 -75l-2 1 -8 3 -10 5 -10 8 -5 5 -6 6 2 0 12 0 8 -2 7 -3 7 -5 6 -5 4 -8 -1 -4 -4 0z"/>
  <path id="123456789101112131415161718" class="fil1" d="M984 354l-3 0 -1 0 -2 0 -2 -2 -4 -2 -7 -3 -6 -5 -3 -8 0 -3 0 -1 -1 -4 0 -1 -1 -1 1 -2 0 -3 3 -7 3 -7 3 -5 4 -4 4 -4 7 -7 9 -7c7,-5 14,-8 20,-10 9,-3 16,-5 20,-6l9 -1 9 1 3 3 1 4 -1 1 1 3 -1 6 -2 3 0 2 0 2 -3 4 0 2 -2 2 -3 3 -2 1 -4 4 -5 5 -4 3 0 2 -3 2 -1 0 -2 2 -3 1 -7 5 -3 1 -1 1 -12 4 -4 0 -1 2 0 1 1 2 5 4 9 3 10 0 1 1 16 0 13 -1 11 -2 6 -1 2 0 0 3 -7 4 -6 3 0 1 -3 1 -3 0 -1 1 -6 2 -2 0 -1 1 -2 1 -2 0 0 0 -3 0 -1 1 -14 2 -3 0 0 0 -5 0 -1 0 -2 0 -3 0 -1 0 -4 0 -1 -1 -2 0 -3 -1 -2 -1 0 0zm46 -76l-2 1 -8 3 -10 5 -10 8 -5 5 -5 6 2 0 12 -1 8 -2 7 -3 7 -5 5 -6 4 -8 -1 -4 -4 0z"/>
  <path id="12345678910111213141516171819" class="fil1" d="M1173 254l3 3 2 3 3 5 1 7 1 8 0 4 -1 6 0 7 0 6 -1 4 0 4 0 5 0 3 0 3 0 4 -1 5 0 7 0 6 0 6 2 3 2 4 2 4 -2 3 -4 -1 -4 -1 -4 -1 -5 -2 -3 -3 -2 -5 -1 -5 -2 -9 0 -5 0 -4 -1 -11 1 -4 0 -5 0 -1 0 -1 1 -1 -1 -7 0 -5 0 -4 1 -5 0 -3 -2 -3 -3 -2 -5 0 -3 1 -3 4 -1 3 -2 4 0 7 -2 8 -1 6 -2 8 -2 7 -1 4 0 2 -2 6 0 2 -1 2 -3 8 -1 1 -2 3 -3 1 0 1 -3 0 -5 0 -2 -3 -1 -1 -2 -1 0 -3 -1 -3 -1 -4 0 -4 0 -6 1 -5 0 -5 2 -6 2 -8 2 -10 2 -9c0,-2 1,-3 2,-5 1,-2 1,-4 1,-5l0 -8 -1 -6c-1,-3 -1,-6 0,-7 1,-1 4,-2 9,-1l5 0 5 2 3 3 4 0 4 -3 3 -3 7 -3c2,-1 5,-1 9,0l5 2z"/>
  <polygon id="1234567891011121314151617181920" class="fil1" points="1402,147 1408,152 1410,160 1406,168 1403,171 1398,174 1393,167 1387,171 1382,174 1378,178 1369,181 1371,183 1369,185 1366,187 1363,188 1361,190 1360,191 1358,193 1355,196 1354,197 1350,201 1346,206 1342,210 1341,212 1338,216 1336,219 1333,221 1330,225 1328,232 1327,238 1329,244 1340,247 1349,248 1359,250 1362,252 1366,254 1370,255 1373,256 1379,258 1385,259 1395,263 1400,265 1414,271 1417,273 1420,275 1424,278 1429,284 1428,292 1434,290 1435,295 1435,298 1436,301 1431,309 1422,316 1414,319 1406,323 1386,327 1383,328 1378,330 1371,333 1363,334 1348,336 1343,336 1340,337 1333,338 1322,339 1316,340 1306,340 1306,340 1305,341 1303,340 1303,340 1303,341 1303,342 1302,342 1301,342 1299,340 1297,340 1296,340 1294,340 1295,341 1293,341 1293,341 1291,341 1290,341 1289,341 1288,340 1287,341 1287,340 1287,340 1290,339 1295,337 1299,336 1302,335 1306,334 1311,331 1311,331 1323,328 1329,327 1337,326 1347,323 1354,321 1360,320 1362,320 1363,318 1367,317 1370,317 1371,316 1373,315 1375,315 1377,314 1379,314 1381,313 1383,310 1385,309 1387,308 1389,306 1389,303 1389,301 1388,300 1388,297 1387,296 1385,294 1384,293 1383,292 1380,291 1372,287 1368,286 1362,283 1358,282 1355,281 1349,279 1347,279 1344,277 1343,277 1338,277 1337,276 1330,275 1322,274 1316,274 1315,274 1310,273 1305,271 1300,268 1296,266 1290,262 1286,258 1285,254 1283,250 1281,240 1282,237 1283,234 1283,231 1285,226 1287,222 1289,218 1294,210 1297,206 1302,201 1307,196 1310,191 1320,182 1325,177 1330,171 1338,165 1340,164 1342,161 1349,154 1357,147 1360,143 1361,143 1363,140 1365,138 1367,136 1369,135 1372,134 1375,133 1380,133 1388,136 1392,137 1398,142 1400,144 "/>
  <path id="123456789101112131415161718192021" class="fil1" d="M1534 185l-2 1 -6 6 -8 12 -9 16 -5 12 -3 11 0 11 1 4 3 0 7 -15 8 -18 9 -23 4 -15zm-16 -7l7 -5 3 -1 6 3 1 1 1 6 3 -7 1 0 3 -2 5 -1 2 1 2 2 1 1 3 6 0 4 3 4 2 31 0 1 0 6 2 10 1 4 -1 1 2 4 0 3 2 2 0 4 1 3 2 1 3 6 3 2 2 2 3 1 3 -1 2 0 0 1 -3 2 -1 2 -1 0 -2 3 0 1 -1 1 -5 2 -3 0 -9 -3 -4 -3 -4 -4 -1 -1 -3 -5 -5 -7 -5 -13 -3 -10 -1 0 0 1 -2 9 -3 8 -1 5 -2 5 -1 3 -3 5 -6 8 -7 7 -4 1 -9 1 -7 0 -4 -3 -3 -2 -3 -5 -2 -7 -2 -8 1 -11 1 -2 2 -8 7 -16 12 -20 10 -15 7 -9z"/>
  <polygon id="12345678910111213141516171819202122" class="fil1" points="1676,244 1678,242 1672,250 1670,251 1666,253 1657,252 1652,251 1647,248 1644,246 1635,239 1634,236 1629,230 1624,219 1621,212 1619,203 1619,202 1619,201 1616,183 1616,164 1617,163 1617,150 1621,127 1621,124 1623,114 1629,94 1632,83 1634,80 1636,77 1641,76 1646,79 1648,81 1650,86 1650,97 1649,104 1649,108 1647,120 1646,123 1645,128 1645,130 1644,133 1642,143 1641,155 1640,159 1639,163 1641,166 1639,168 1640,169 1639,176 1639,176 1640,181 1639,183 1640,187 1639,188 1639,190 1641,204 1642,207 1643,208 1643,208 1644,212 1643,213 1645,217 1646,218 1648,224 1652,229 1655,233 1655,234 1658,235 1658,237 1663,239 1668,239 1671,237 1674,237 1681,239 "/>
  <path id="1234567891011121314151617181920212223" class="fil1" d="M1764 200l-2 1 -1 0 -2 1 -2 -1 -4 -1 -7 0 -8 -3 -6 -6 -2 -3 0 -1 -3 -4 0 -1 -1 -1 0 -2 -1 -3 0 -8 0 -7 2 -6 3 -5 2 -5 4 -9 6 -9c5,-7 10,-12 15,-16 7,-6 13,-10 16,-13l8 -4 8 -2 3 1 3 3 -1 1 2 3 1 6 0 4 0 1 0 2 -2 5 0 2 -1 3 -2 4 -1 2 -2 5 -3 7 -3 5 0 2 -2 3 -1 0 -1 2 -2 2 -5 7 -3 2 0 1 -9 8 -4 2 0 3 1 1 2 2 6 2 10 0 10 -4 1 0 15 -5 12 -5 10 -6 5 -3 2 -1 1 3 -5 6 -4 5 0 1 -2 2 -3 1 0 1 -5 5 -1 1 0 1 -2 1 -2 1 0 0 -2 1 -1 2 -13 7 -2 1 0 0 -4 2 -1 1 -2 1 -3 1 -1 0 -3 1 -1 -1 -1 1 -3 0 -2 0 0 0zm16 -87l-1 2 -6 6 -8 8 -6 11 -3 6 -3 8 2 -1 11 -5 7 -5 6 -5 5 -7 3 -7 1 -9 -2 -3 -4 1z"/>
 </g>
</svg>
